<?xml version="1.0" encoding="UTF-8" standalone="no"?>
<svg
   xmlns:dc="http://purl.org/dc/elements/1.1/"
   xmlns:cc="http://creativecommons.org/ns#"
   xmlns:rdf="http://www.w3.org/1999/02/22-rdf-syntax-ns#"
   xmlns:svg="http://www.w3.org/2000/svg"
   xmlns="http://www.w3.org/2000/svg"
   viewBox="0 0 199.10353 44.288849"
   height="44.288849"
   width="199.10353"
   id="svg2"
   version="1.1">
  <metadata
     id="metadata8">
    <rdf:RDF>
      <cc:Work
         rdf:about="">
        <dc:format>image/svg+xml</dc:format>
        <dc:type
           rdf:resource="http://purl.org/dc/dcmitype/StillImage" />
        <dc:title></dc:title>
      </cc:Work>
    </rdf:RDF>
  </metadata>
  <defs
     id="defs6" />
  <path
     id="path12"
     d="M 2.2927414,43.187285 C 1.2715545,41.53497 1.5747255,36.48697 2.8851471,33.323332 3.8291589,31.044286 3.6761646,30.042964 1.9517563,27.214441 -0.7162673,22.83812 -0.6471762,17.814007 2.1482574,12.925413 5.8266179,6.4927758 8.9178719,4.831396 17.208428,4.831396 c 5.952278,0 7.769173,-0.411216 10.673379,-2.415698 l 3.5,-2.415698 -3.264245,3.478002 -3.264244,3.4780018 2.485223,2.334746 c 3.295757,3.0962032 4.914094,8.3185102 4.197639,13.5456142 l -0.583217,4.255032 4.322388,1.210194 c 2.377313,0.665607 7.648803,1.558505 11.714422,1.984219 l 7.392034,0.774026 -7,0.269231 c -19.792187,0.761237 -21.474828,0.939731 -23.911914,2.53657 -2.57133,1.684801 -10.270397,1.676798 -15.3380861,-0.01594 -2.052538,-0.685601 -2.25,-0.43934 -2.25,2.806056 0,4.475389 1.195516,5.223461 5.1750661,3.2382 4.530204,-2.259963 4.629714,-1.181516 0.170569,1.848551 -4.0331141,2.740572 -7.7612716,3.343434 -8.9347006,1.444786 z M 20.023569,33.308701 c 5.264721,-1.462336 6.344366,-3.136557 4.421065,-6.85581 -2.108747,-4.077868 -1.981617,-4.442003 0.893197,-2.558352 1.350813,0.885086 2.925813,1.318903 3.5,0.964036 2.849406,-1.76103 -0.190598,-13.511984 -4.026711,-15.5650092 -1.521015,-0.814023 -2.712216,0.18441 -7.461127,6.2537242 -6.252921,7.991503 -9.8557421,14.348011 -8.9567761,15.802567 0.468415,0.757912 4.8170681,2.433692 7.4885901,2.885774 0.275,0.04654 2.138793,-0.370582 4.141762,-0.92693 z M 15.441378,13.720764 c 2.992236,-3.408203 5.440429,-6.4650752 5.440429,-6.7930502 0,-0.327975 -1.822347,-0.596318 -4.04966,-0.596318 -10.4454751,0 -17.30207,9.4357552 -13.4886618,18.5625262 l 1.6236067,3.885837 2.516928,-4.431132 c 1.384311,-2.437122 4.9651221,-7.219661 7.9573581,-10.627863 z m 37.386223,3.68184 6.035676,-7.9287932 9.166327,-0.321207 c 11.900328,-0.417013 13.694151,0.648472 9.102203,5.4064782 -1.7875,1.85214 -3.25,3.868603 -3.25,4.481028 0,0.612424 -1.384526,2.278501 -3.076725,3.702392 -2.881209,2.424378 -3.741948,2.588894 -13.544941,2.588894 H 46.791926 Z m 11.81042,2.178792 c 0.59625,-1.81583 -3.264118,-1.547866 -4.826798,0.335049 -1.155228,1.391965 -0.966361,1.544234 1.550436,1.25 1.576251,-0.184277 3.050614,-0.897549 3.276362,-1.585049 z m 4.31437,-5.835049 c 1.155228,-1.391965 0.966361,-1.544234 -1.550436,-1.25 -1.576251,0.184277 -3.050614,0.897549 -3.276362,1.585049 -0.59625,1.81583 3.264118,1.547866 4.826798,-0.335049 z m 8.280703,10.058104 C 76.144475,20.967555 85.40945,9.3667838 88.834058,9.2787648 c 1.126262,-0.02895 5.197749,-0.05263 9.047747,-0.05263 9.346295,0 8.999995,-0.04694 8.999995,1.2200292 0,1.949504 -8.407285,12.709973 -10.797045,13.819117 -1.26338,0.586365 -5.890003,1.066117 -10.281386,1.066117 -6.237312,0 -8.11254,-0.334105 -8.570275,-1.526945 z m 16.481348,-6.414417 c 3.699483,-4.603506 3.812063,-5.058638 1.251393,-5.058638 -1.053783,0 -3.303783,1.752257 -4.999999,3.893904 -3.587124,4.529113 -3.72853,5.106096 -1.251394,5.106096 1.00795,0 3.25795,-1.773613 5,-3.941362 z m 14.113148,0.01257 6.03568,-7.9287932 9.01156,-0.321207 c 4.95636,-0.176664 9.01053,-0.03881 9.00927,0.306347 -0.006,1.5613062 -2.94958,2.7699402 -7.44952,3.0584812 -6.15882,0.394909 -7.5923,2.813964 -1.6675,2.813964 3.19089,0 3.92963,0.318757 3.47635,1.5 -0.40035,1.043276 -2.02816,1.5 -5.34617,1.5 -3.02056,0 -5.22724,0.550253 -6.01546,1.5 -1.07233,1.292078 -0.67346,1.5 2.87756,1.5 2.26734,0 4.12244,0.36 4.12244,0.8 0,2.354914 -2.96967,3.2 -11.24494,3.2 h -8.84494 z m 23.23161,-0.203628 c 6.04688,-7.7777742 6.50794,-8.1404012 10.5726,-8.3154302 2.3375,-0.100656 4.25,-0.0145 4.25,0.191457 0,0.205956 -2.72022,3.9479002 -6.04494,8.3154292 -5.9848,7.861956 -6.08999,7.940964 -10.5726,7.940964 h -4.52766 z m 9.44012,6.88242 c 1.13411,-1.927299 9.24599,-12.470657 10.75815,-13.982811 1.42338,-1.4233852 5.41398,-1.6332592 7.42483,-0.3904882 0.65972,0.4077332 1.1995,1.8132182 1.1995,3.1232992 0,3.766567 1.56276,3.763664 4.13104,-0.0077 1.30293,-1.913263 2.70646,-3.5317352 3.11896,-3.5966052 2.61986,-0.411996 4.75216,-0.235921 4.76519,0.393487 0.008,0.4035092 -2.5384,4.1263962 -5.65944,8.2730822 -5.35894,7.119993 -5.86969,7.522691 -9.18083,7.238569 -3.13562,-0.269061 -3.62141,-0.71372 -4.59629,-4.207092 l -1.09009,-3.906231 -2.88027,4.156231 c -2.2662,3.270153 -3.50346,4.156259 -5.80329,4.156259 -2.06404,0 -2.70686,-0.367332 -2.18746,-1.25 z m 27.83178,0.167965 c -0.69115,-1.118297 5.19963,-10.385285 8.50063,-13.372653 1.48155,-1.3407822 3.87803,-1.6964522 11.53385,-1.7117792 5.31506,-0.01064 9.95213,0.269045 10.30461,0.621524 1.67555,1.6755452 -1.74151,4.0611002 -6.23611,4.3536262 -3.14921,0.204962 -4.523,-0.04705 -4.08855,-0.75 0.39065,-0.632089 -0.30854,-1.058683 -1.73519,-1.058683 -1.68657,0 -3.34017,1.323789 -5.62116,4.5 -3.16023,4.400553 -3.18138,4.5 -0.95708,4.5 1.25101,0 3.19342,-1.152351 4.31647,-2.56078 1.81454,-2.275661 2.65021,-2.526177 7.50554,-2.25 l 5.46364,0.31078 -5.3486,4.25 -5.34861,4.25 h -8.81035 c -5.24019,0 -9.08134,-0.438466 -9.47909,-1.082035 z"
     style="fill:#312E2E" />
</svg>
