<?xml version="1.0" encoding="UTF-8" standalone="no"?>
<svg
   xmlns:dc="http://purl.org/dc/elements/1.1/"
   xmlns:cc="http://creativecommons.org/ns#"
   xmlns:rdf="http://www.w3.org/1999/02/22-rdf-syntax-ns#"
   xmlns:svg="http://www.w3.org/2000/svg"
   xmlns="http://www.w3.org/2000/svg"
   viewBox="0 0 60.999996 60.274887"
   height="60.274887"
   width="60.999996"
   id="svg2"
   version="1.1">
  <metadata
     id="metadata8">
    <rdf:RDF>
      <cc:Work
         rdf:about="">
        <dc:format>image/svg+xml</dc:format>
        <dc:type
           rdf:resource="http://purl.org/dc/dcmitype/StillImage" />
        <dc:title></dc:title>
      </cc:Work>
    </rdf:RDF>
  </metadata>
  <defs
     id="defs6" />
  <path
     id="path12"
     d="m 0,55.206774 c 0,-6.286285 0.954125,-8.119625 5.6754129,-10.905254 3.590712,-2.118571 3.776288,-2.131891 5.0716551,-0.364021 1.173462,1.601499 1.052409,2.057669 -0.9512511,3.584665 C 5.4143879,50.861263 5,51.361536 5,53.311942 c 0,1.280764 0.6798089,1.960573 1.9605739,1.960573 1.931491,0 2.315847,-0.313266 5.7897771,-4.718904 1.555383,-1.972536 1.957467,-2.061446 3.62135,-0.800767 1.827076,1.384325 1.825771,1.496779 -0.05474,4.716662 C 13.865766,58.666529 10.722954,60.239236 4.75,60.257773 L 0,60.272513 Z M 22.103002,55.022515 C 21.24428,51.312773 19.656248,48.395751 16.690165,45.07979 13.107192,41.074169 11.616031,40.192601 6.5059729,39.058938 -1.040766,37.384699 -1.642056,35.538458 3.608271,30.161636 7.1557259,26.528712 7.7869509,26.272515 13.190376,26.272515 h 5.784481 l 3.50096,-6.951979 C 29.467886,5.4361391 35.840566,1.33729 51.749996,0.491662 L 60.999996,0 v 7.9547565 c 0,15.9589725 -4.37349,23.0868715 -18.767,30.5864015 l -7.233,3.768644 v 5.278409 c 0,4.792278 -0.34925,5.619442 -3.79216,8.981356 -5.469081,5.340416 -7.59412,4.979339 -9.104834,-1.547052 z m 7.896994,-9.853801 v -5.858912 l 7.11907,-3.768644 c 15.08569,-7.985964 17.80955,-11.51623 19.36971,-25.104105 l 0.72744,-6.335464 -5.85811,0.7136006 c -8.41932,1.0255933 -15.84076,4.0537881 -18.92863,7.7235134 -1.45945,1.734451 -4.2768,6.434106 -6.260792,10.443679 l -3.607255,7.290133 h -6.125727 c -4.806355,0 -6.5063581,0.420593 -7.8929641,1.952775 -1.709803,1.889311 -1.674215,1.97358 1.095013,2.592945 1.5742371,0.352094 3.6312301,0.847791 4.5710951,1.101551 C 16.526154,36.545449 26,48.013793 26,50.193294 c 0,2.458528 1.084884,3.253663 2.657996,1.9481 0.84324,-0.69983 1.342,-3.291266 1.342,-6.97268 z m 8.39967,-19.32146 c -7.7822,-3.394511 -4.91289,-14.574738 3.74047,-14.574738 4.46613,0 7.85986,3.37413 7.85986,7.814451 0,3.025626 -2.84729,7.185548 -4.91821,7.185548 -0.50501,0 -1.51751,0.208592 -2.25,0.463537 -0.73248,0.254946 -2.72694,-0.145013 -4.43212,-0.888798 z m 6.01194,-5.865493 c 1.56229,-2.476738 -1.64396,-5.59122 -3.86142,-3.750898 -1.86241,1.545667 -1.97843,3.213408 -0.33769,4.854153 1.4711,1.471093 2.7946,1.123364 4.19911,-1.103255 z"
     style="fill:#fefefe" />
</svg>
