<svg xmlns="http://www.w3.org/2000/svg" viewBox="0 0 539.077 539.077" fill="#fff"><path d="M176.956 462.392c-15.004 0-29.108-5.835-39.703-16.451L32.316 341.025c-21.891-21.913-21.891-57.536 0-79.427L223.239 70.675c4.387-4.387 11.494-4.387 15.881 0l202.154 202.154a11.257 11.257 0 0 1 2.435 12.24A11.235 11.235 0 0 1 433.334 292H370.6L216.658 445.94c-10.605 10.617-24.709 16.452-39.702 16.452zm54.223-367.896L48.197 277.479c-13.128 13.139-13.128 34.526.011 47.665L153.134 430.06c12.722 12.7 34.888 12.744 47.643 0l157.231-157.231a11.222 11.222 0 0 1 7.941-3.29h40.273L231.179 94.496z"/><path d="M219.949 247.077a11.224 11.224 0 0 1-11.231-11.231V56.154c0-18.579-15.113-33.692-33.692-33.692s-33.692 15.113-33.692 33.692v123.9a11.224 11.224 0 0 1-11.231 11.231 11.224 11.224 0 0 1-11.231-11.231v-123.9C118.872 25.192 144.064 0 175.026 0s56.154 25.192 56.154 56.154v179.692c-.001 6.208-5.024 11.231-11.231 11.231zm235.846 292c-37.158 0-67.385-30.227-67.385-67.385 0-33.21 51.877-119.612 57.777-129.373 4.08-6.712 15.135-6.712 19.215 0 5.901 9.761 57.777 96.163 57.777 129.373 0 37.158-30.226 67.385-67.384 67.385zm0-168.813c-20.312 35.403-44.923 84.011-44.923 101.428 0 24.765 20.158 44.923 44.923 44.923s44.923-20.158 44.923-44.923c0-17.416-24.611-66.024-44.923-101.428z"/></svg>