<svg xmlns="http://www.w3.org/2000/svg" viewBox="0 0 437.2 437.2" fill="#fff"><path d="M98.8 217.6c-10.4 0-18.8 8.4-18.8 18.8v112c0 10 8.4 18.8 18.8 18.8s18.8-8.4 18.8-18.8v-112c0-10.4-8.4-18.8-18.8-18.8z"/><path d="M423.2 178.8c-1.2-12-4.4-24-8.4-35.2-4-11.6-9.2-22.4-15.6-32.8-6-10.4-13.2-20.4-20.8-29.6-.8-.8-1.6-1.6-2.8-2.4 1.2-5.6-.4-11.2-4.4-15.6-42-42-97.2-63.2-152-63.2s-110 20.8-152 62.8c-4.4 4.4-5.6 10-4.4 15.6-.8.4-2 1.2-2.8 2.4-8 9.2-14.8 19.2-20.8 29.6-6 10.4-11.2 21.6-15.6 32.8-4 11.6-7.2 23.2-9.6 35.2-2 12-3.2 24-3.2 36v77.2c0 2.8 1.2 5.2 2.8 7.2l1.2 1.2c2 14.8 8.8 27.6 18.4 37.6 7.6 7.6 17.6 13.6 28.4 16.8-.4-2-.8-4.4-.8-6.8v-112c0-2.4.4-4.4.8-6.8-10.8 3.2-20.4 8.8-28.4 16.8l-2.4 2.4v-33.2c0-10.8.8-22 2.8-32.8 2-10.8 4.8-21.6 8.4-31.6 3.6-10.4 8.4-20.4 14-29.6 5.6-9.6 11.6-18.4 18.8-26.8.4-.8 1.2-1.6 1.6-2.4 5.6.8 10.8-.8 14.8-4.8 35.2-35.2 81.6-53.2 128-53.2 46.4 0 92.8 18 128 53.2 4 4 9.2 5.6 14 4.8.4.8.8 1.6 1.6 2.4 7.2 8.4 13.2 17.2 18.8 26.8 5.6 9.6 10 19.6 14 29.6 3.6 10.4 6.4 20.8 8.4 31.6s2.8 21.6 2.8 32.8v33.6l-2.4-2.4c-7.6-7.6-17.6-13.6-28.4-16.8.4 2 .8 4.4.8 6.8v112c0 2.4-.4 4.4-.8 6.8 2.8-.8 6-2 8.8-3.2V388c0 4.4-.4 8-1.2 11.2-.8 2.8-1.6 4.8-3.2 6.4-1.2 1.2-2.8 2.4-4.8 3.2-2 .8-4.8 1.2-7.6.8H259.6c-3.2-6-9.6-10-16.4-10h-47.6c-10.4 0-18.8 8.4-18.8 18.8s8.4 18.8 18.8 18.8h47.2c7.2 0 13.2-4 16.4-10h112c4 0 7.6-.8 10.8-2 4.4-1.6 8.4-4.4 11.6-8 3.2-3.6 5.2-7.6 6.8-12.4s2-10.4 2-16.8v-48.4l1.6-1.6c10-10 16.8-23.2 18.4-37.6l1.2-1.2c2-2 2.8-4.4 2.8-7.2v-77.2c0-12-1.2-24.4-3.2-36z"/><path d="M358.4 348V236c0-10.4-8.4-18.8-18.8-18.8s-18.8 8.4-18.8 18.8v112c0 10.4 8.4 18.8 18.8 18.8 10.4.4 18.8-8.4 18.8-18.8z"/></svg>