<svg xmlns="http://www.w3.org/2000/svg" width="725.334" height="725.334"><path d="M215.333 374c0 9.385 3.808 17.885 9.951 24.027l113.333 113.332c6.166 6.166 14.666 9.975 24.049 9.975s17.884-3.809 24.026-9.975l113.334-113.332A33.806 33.806 0 0 0 510 374c0-18.768-15.209-34-34-34-9.384 0-17.884 3.808-24.026 9.951l-55.307 55.307V34c0-18.768-15.209-34-34-34s-34 15.232-34 34v371.258l-55.307-55.285c-6.143-6.165-14.643-9.973-24.027-9.973-18.79 0-34 15.232-34 34zm408.001-215.333H498.667c-18.791 0-34 15.232-34 34s15.209 34 34 34h102v430.667h-476V226.667h102c18.791 0 34-15.232 34-34s-15.209-34-34-34H102c-25.001 0-45.333 20.354-45.333 45.333v476c0 24.979 20.332 45.334 45.333 45.334h521.333c25.001 0 45.333-20.355 45.333-45.334V204c.001-24.979-20.331-45.333-45.332-45.333z"/></svg>