<svg xmlns="http://www.w3.org/2000/svg" height="108.246" width="101.775"><path d="M34.806 106.817c-11.526-2.199-18.135-4.953-20.481-8.533-1.148-1.752-1.943-5.612-2.335-11.344l-.594-8.688-3.35-.5c-3.183-.475-3.467-.87-5.736-8-2.925-9.19-3.048-12.59-.505-13.952 1.177-.63 1.727-1.724 1.432-2.85-.314-1.2 1.139-3.628 4.218-7.053 4.615-5.133 5.52-8.3 1.3-4.556-1.581 1.405-2.027 1.513-1.683.411.258-.825 1.932-2.202 3.72-3.06 1.788-.858 3.555-2.039 3.927-2.624.372-.585 2.226-2.002 4.12-3.147 2.807-1.698 3.131-2.203 1.75-2.733-2.262-.868-2.134-2.338.445-5.083 1.669-1.776 2.546-2.057 4-1.28 2.372 1.27 2.495-1.025.378-7.028-1.33-3.77-1.319-4.535.114-7.376C29.539 1.462 35.41-1.553 42.402.754c2.672.882 4.436 2.5 6.65 6.1 1.659 2.694 3.652 4.898 4.43 4.898.925 0 1.419 1.123 1.429 3.25.025 5.242 1.15 6.233 4.881 4.303 3.92-2.026 5.41-1.224 4.598 2.473-.789 3.59 1.462 4.964 8.19 4.998 10.815.055 17.6 3.418 20.364 10.093.657 1.586 1.493 2.883 1.857 2.883 1.417 0 4.193 6.115 3.61 7.951-.422 1.329.025 2.268 1.437 3.023 2.601 1.393 2.579 3.755-.124 12.873-1.554 5.244-2.756 7.56-4.2 8.095-1.723.637-2.266 2.455-3.67 12.281-2.429 16.991-4.68 19.32-21.535 22.266-14.166 2.477-24.654 2.647-35.513.576zm35.548-3.586c10.309-1.797 13.98-3.492 15.991-7.382 1.444-2.791 4.336-20.657 3.48-21.49-.237-.229-5.023-.572-10.638-.762l-10.209-.345-.291 2.5c-.225 1.934-1.611 3.158-6.116 5.404-7.408 3.693-13.68 4.316-21.28 2.115-7.116-2.061-8.395-3.014-8.395-6.248 0-1.979-.357-2.336-1.75-1.754-.963.402-5.238 1.222-9.5 1.822l-7.75 1.09v3.65c0 5.817 1.876 14.127 3.626 16.06 5.275 5.83 33.605 8.693 52.832 5.34zm-19.958-5.479c.34-.55 1.743-1 3.118-1 1.412 0 2.23.435 1.882 1-.34.55-1.743 1-3.118 1-1.412 0-2.231-.435-1.882-1zm-12.304-6.468c-3.467-.786-6.954-1.178-7.75-.873-.795.305-1.446.15-1.446-.346 0-.517 7.783-.73 18.25-.5 16.137.355 18.915.175 24-1.55 7.193-2.443 7.519-1.281.5 1.782-6.684 2.916-23.879 3.678-33.554 1.487zm23.985-12.032c5.762-4.297 6.183-9.07 1.236-14.016l-3.582-3.582-7.978.477c-4.388.262-8.739 1.05-9.668 1.75-3.806 2.869-8.207 8.382-7.715 9.664.289.754.526 2.173.526 3.153 0 4.892 21.356 6.899 27.181 2.554zm-15.181-14.5c1.375-.44 3.625-.839 5-.885 1.965-.066 2.179.123 1 .885-.825.533-3.075.931-5 .885-3.207-.077-3.291-.151-1-.885zm-36 6.469c0-2.412-2.392-4.41-3.706-3.097-.853.854 1.424 5.628 2.684 5.628.562 0 1.022-1.14 1.022-2.531zm13.167 1.531c4.21 0 13.048-8.35 12.631-11.932-.28-2.414-.754-2.621-7.903-3.457-4.182-.488-9.245-.58-11.25-.204l-3.645.684v7.288c0 4.008.334 7.622.743 8.03.408.41 2.04.484 3.625.167 1.585-.317 4.195-.576 5.8-.576zm-2.557-6.572c-.863-2.25 1.121-5.428 3.39-5.428 2.515 0 4.142 2.995 2.865 5.276-1.207 2.156-5.446 2.26-6.255.152zm4.39-2.428c0-.55-.45-1-1-1s-1 .45-1 1 .45 1 1 1 1-.45 1-1zm64.608 4.578c.3-.782.014-2.414-.635-3.627-.927-1.734-.903-2.377.117-3.007 1.028-.635 1.05-1.342.103-3.42-1.455-3.192-1.495-3.829-.193-3.024.55.34 1-.055 1-.878 0-1.103-.855-1.392-3.25-1.1-1.788.22-6.672.63-10.853.913-10.079.682-10.897 1.068-10.897 5.137 0 2.33.95 4.44 3.103 6.893l3.104 3.535h8.928c6.795 0 9.058-.34 9.473-1.422zm-15.529-4.982c-.684-.825-.965-2.38-.624-3.456.947-2.983 3.623-3.506 5.964-1.165 1.615 1.615 1.82 2.423.965 3.789-1.43 2.281-4.74 2.718-6.305.832zm3.92-3.18c0-.87-.534-1.405-1.187-1.187-1.854.618-2.162 2.771-.396 2.771.871 0 1.584-.712 1.584-1.583zm16.2 4.384c-.933-.933-1.2-.667-1.2 1.2s.267 2.133 1.2 1.2c.934-.933.934-1.467 0-2.4zm-84.2-2.359c0-.857-.45-1.28-1-.941-.55.34-1 1.041-1 1.559s.45.941 1 .941 1-.702 1-1.559zm49.51-8.52c5.013-2.417 8.642-3.306 16.919-4.143 10.228-1.035 10.52-1.132 9.97-3.328-.427-1.7-.05-2.426 1.517-2.923 2.385-.757 2.845-3.527.585-3.527-.825 0-1.5-.477-1.5-1.059s.45-.78 1-.441c1.384.855 1.252-.112-.47-3.441-1.65-3.19-5.333-4.783-13.202-5.708-3.605-.424-5.78-.22-6.812.636-.834.692-1.516.856-1.516.364s-3.263-.913-7.25-.936c-3.988-.023-6 .13-4.472.34 4.89.674 1.99 6.16-3.278 6.201-1.375.011-4.459-1.1-6.852-2.468-5.103-2.917-5.886-3.081-4.03-.844.751.904 3.169 2.46 5.373 3.46l4.009 1.816-4.654-.21c-2.56-.116-4.515-.435-4.346-.71.564-.913-4.398-6.435-5.127-5.707-.393.393.34 1.838 1.63 3.21 3.04 3.237 1.026 3.234-2.821-.003-3.318-2.792-5.698-3.286-4.82-1 .316.825.187 1.5-.287 1.5s-1.125-.686-1.446-1.525c-.615-1.6-3.323-1.375-8.918.743-4.588 1.738-6.4 6.755-2.461 6.817 2.218.035 2.214.056-.25 1.42-1.375.76-2.4 1.64-2.278 1.954.123.313-.023 1.212-.324 1.996s-.401 2.702-.223 4.26l.325 2.835 11-.32c9.567-.278 11.516-.05 14.961 1.75 5.847 3.055 12.295 2.73 20.047-1.008zm-38.51-4.921c-1.281-.828-1.245-.972.25-.985.963-.008 1.75.435 1.75.985 0 1.22-.112 1.22-2 0zm5.226-1.428c-1.801-.654-2.964-1.5-2.584-1.88 1.27-1.27 4.112-.712 6.498 1.275 2.702 2.25 1.24 2.477-3.914.605zm42.405-.361c-.34-.552.312-2.062 1.451-3.357 1.14-1.295 1.742-1.721 1.34-.948-.588 1.13-.062 1.278 2.673.758l3.406-.649-2.472 1.915c-1.36 1.052-2.873 1.666-3.362 1.364-.49-.303-1.233.005-1.653.685-.48.777-.993.863-1.383.232zm20.87-.211c-.34-.55-1.068-1-1.618-1s-.722.45-.382 1c.34.55 1.068 1 1.618 1s.722-.45.382-1zm6.073-1.774c-1.727-1.65-1.754-1.623-.61.61.66 1.284 1.473 2.061 1.808 1.726.335-.335-.204-1.386-1.198-2.336zM51.243 31.655c-1.18-1.18-2.918-1.903-3.973-1.653-1.495.355-1.165.772 1.626 2.059 4.6 2.12 4.833 2.08 2.347-.406zm-21.43-4.545c.228-.197-1.71-.358-4.31-.358-2.673 0-4.475.406-4.148.934.51.825 7.372.358 8.457-.576zm14.682-2.846c4.277-.818 8.148-1.859 8.601-2.313.735-.734-.847-7.199-1.761-7.199-.201 0-2.52.834-5.152 1.853-2.633 1.019-7.77 2.646-11.414 3.615-5.6 1.49-6.55 2.054-6.133 3.647.62 2.37 4.98 2.479 15.86.397zm15.885-2.537c-.302-.488-1.247-.62-2.1-.292-1.212.465-1.27.77-.266 1.39 1.517.938 3.154.177 2.366-1.098zM34.398 10.51c.45.407.452.109.004-.664-.575-.991-.443-1.174.451-.621 1.908 1.179 2.927-1.315 1.657-4.055-1.29-2.781-2.467-2.998-5.173-.95-1.299.982-1.487 1.478-.568 1.5 1.106.025 1.13.322.127 1.531-1.504 1.812.04 2.007 1.984.25.76-.687.547.1-.475 1.75-1.318 2.128-1.417 2.64-.342 1.759.835-.683 1.885-.908 2.335-.5zm4.998.241c.34-.55-.057-1-.882-1s-1.778.45-2.118 1c-.34.55.057 1 .882 1s1.778-.45 2.118-1z" fill="#141414"/></svg>