<svg xmlns="http://www.w3.org/2000/svg" height="103.872" width="103"><path d="M46.03 102.69c-.033-1.919-1.102-2.262-2.58-.826-1.219 1.184-6.45.186-6.45-1.23 0-.592-.66-.202-1.468.866-1.449 1.915-1.469 1.914-1.516-.06-.038-1.626-.22-1.724-.978-.527-.82 1.296-.987 1.296-1.405 0-.261-.81-.7-2.147-.975-2.972-.275-.825-.536-.236-.58 1.309-.045 1.633-.503 2.546-1.094 2.18-.56-.345-.808-.965-.553-1.377.255-.413-.863-.556-2.484-.318-2.63.386-2.947.148-2.947-2.216 0-2.339-.234-2.523-2-1.578-1.81.969-2.001.759-2.015-2.215-.012-2.417-.261-2.896-.946-1.814-1.694 2.68-2.216.272-.613-2.828 2.436-4.711 1.85-5.09-.995-.643-2.242 3.505-2.487 3.66-1.976 1.25.352-1.66.156-2.75-.495-2.75-.593 0-.788-.47-.433-1.044.355-.574-.079-2.15-.964-3.5-.976-1.49-1.458-3.837-1.224-5.957.212-1.924-.03-3.5-.536-3.5-.507 0-.643-.45-.303-1 .365-.59-.749-1-2.718-1C2.925 70.94 0 68.528 0 64.52c0-3.895 3.32-8.58 6.08-8.58 1.413 0 2.94-2.027 5.647-7.5 2.042-4.124 4.079-7.5 4.527-7.5.45 0 .301.963-.328 2.14-.63 1.175-1.256 3.313-1.393 4.75-.137 1.436-.614 3.472-1.06 4.525-.588 1.384-.478 1.707.397 1.166 1.466-.906.596 3.437-1.536 7.67-.762 1.512-1.163 2.75-.892 2.75.272 0 1.127-1.208 1.9-2.684l1.407-2.684.724 2.283c.398 1.255 1.603 3.161 2.677 4.235 1.244 1.244 1.728 2.66 1.334 3.901-.355 1.119-.154 1.949.472 1.949.63 0 .355 1.161-.65 2.75-1.49 2.357-1.273 2.264 1.523-.655 2.273-2.372 3.58-3.087 4.31-2.356.73.73.506 1.913-.738 3.904l-1.785 2.857 2.996-2.75c3.246-2.979 6.637-3.96 4.41-1.277-1.065 1.284-.837 1.281 1.772-.02 1.648-.822 3.573-2.19 4.278-3.04.705-.85 2.494-2.171 3.974-2.937 2.012-1.04 2.585-1.972 2.265-3.684-.235-1.26.23-3.184 1.036-4.273 1.407-1.905 1.445-1.883.978.56-.56 2.93 1.055 4.634 4.675 4.935 8.096.672 11.927-1.405 9.834-5.334-1.069-2.006-1.022-2.065.587-.737 1.119.923 1.607 2.412 1.355 4.132-.327 2.227.258 3.092 3.415 5.043C66.286 69.354 68 70.724 68 71.104c0 .38 1.395 1.386 3.1 2.237 2.628 1.311 2.914 1.322 1.878.073-2.202-2.653 1.435-1.727 4.018 1.023 2.766 2.943 4.176 2.457 1.488-.514-1.396-1.543-1.558-2.308-.674-3.192.885-.885 1.734-.628 3.541 1.07l2.378 2.234-.281-3.54c-.322-4.057.884-5.297 3.346-3.438 1.445 1.09 1.515 1.073.456-.114-2.101-2.357-1.39-3.434.93-1.407l2.182 1.905-1.595-2.349c-1.242-1.831-1.37-2.992-.578-5.263.558-1.602.759-3.582.445-4.4-.777-2.024.344-1.877 2.001.262.912 1.177.819.44-.283-2.25-.901-2.2-1.758-4.9-1.904-6-.145-1.1-.606-2.9-1.022-4-.62-1.637-.356-1.546 1.454.5l2.212 2.5-2.179-4.5-2.178-4.5 2.265 2 2.265 2-2.202-4.347c-2.801-5.529-1.88-6.532 1.917-2.09 1.616 1.89 2.957 3.142 2.98 2.782.022-.36-1.535-2.541-3.46-4.845S87 28.375 87 27.914c0-.46-1.43-1.855-3.177-3.1-2.68-1.908-4.285-2.226-10.25-2.035-3.89.124-10.764.91-15.275 1.745-7.234 1.34-9.03 1.348-15.223.067-3.862-.8-7.746-2.178-8.632-3.064-2.57-2.57-15.682-.4-14.002 2.318.273.442-.558 1.284-1.847 1.871-1.568.715-2.51 2.17-2.845 4.397-.276 1.83-.166 3.458.244 3.618.994.386-1.315 6.923-5.074 14.37-3.013 5.97-4.904 7.561-2.985 2.512.742-1.95.639-2.956-.412-4.008-1.205-1.204-1.054-2.06 1.062-6.033 3.16-5.938 2.322-6.034-1.137-.131-1.45 2.475-2.707 4.5-2.792 4.5-.456 0 .139-10.955.74-13.61.386-1.71 1.989-4.342 3.561-5.848 2.69-2.578 2.782-2.926 1.541-5.895-1.74-4.167-.5-10.936 2.628-14.329C18.31-.365 26.742-1.515 37.132 1.985c4.74 1.597 6.759 1.83 9.218 1.062 4.827-1.507 21.494-.75 25.937 1.18 2.083.903 3.54 1.243 3.238.754-.302-.489 1.282-.17 3.52.71 5.54 2.176 9.241 6.67 8.452 10.262-.559 2.547 1.355 5.988 3.33 5.988.747 0 2.087 3.034 4.414 10 1.678 5.021 2.234 14.411.801 13.526-.53-.328-.734 1.395-.483 4.073.396 4.23.288 4.52-1.226 3.27-1.505-1.24-1.548-1.158-.462.88.66 1.238 2.05 2.25 3.092 2.25 2.691 0 6.037 4.7 6.037 8.48 0 4.408-2.895 6.869-7.455 6.336-3.703-.432-3.8-.308-3.702 4.685.07 3.548-1.982 11.5-2.968 11.5-.378 0-.471 1.012-.207 2.25.43 2.016.343 2.077-.844.587a59.523 59.523 0 0 1-2.539-3.5c-.668-1.01-.529-.1.309 2.021 1.557 3.944 1.103 6.261-.709 3.613-.724-1.058-.827-.559-.366 1.779.693 3.517.368 3.795-2.585 2.215C80.223 94.99 80 95.214 80 97.854c0 2.927-.061 2.962-3.25 1.871-1.788-.611-3.522-1.521-3.855-2.022-.332-.5-1.284-.23-2.114.6-1.127 1.126-1.798 1.221-2.645.374-.848-.848-1.136-.84-1.136.033 0 .693-1.41 1.117-3.454 1.04-1.9-.071-4.038.317-4.75.863-.713.546-3.46.93-6.103.852-3.41-.1-5.073.312-5.72 1.417-.797 1.362-.916 1.337-.943-.191zm11.956-17.25c.009.55 1.14-.307 2.515-1.905 2.664-3.098 2.97-4.304 1.623-6.428-.678-1.069-.97-1.012-1.468.29-.522 1.358-2.05 1.575-9.39 1.333-6.36-.21-8.697-.632-8.516-1.54.366-1.83-1.43-1.527-2.155.364-.768 2 2.843 8.054 4.804 8.054.793 0 2.003-1.05 2.69-2.334 1.808-3.377 5.421-3.061 7.05.617.87 1.966 1.56 2.55 2.068 1.75.42-.66.77-.75.779-.2zm-24.424-9.27c-.335-.336-1.386.203-2.336 1.197-1.65 1.728-1.623 1.755.61.61 1.284-.66 2.061-1.472 1.726-1.808zM72 77.44c-.685-.824-1.752-1.485-2.372-1.467-.62.017-.254.692.813 1.5 2.494 1.886 3.14 1.873 1.559-.032zm-15.222-3.267c-.845-1.017-1.322-1.101-1.595-.28-.272.815-.916.695-2.124-.399-1.584-1.434-1.893-1.394-3.574.463-1.828 2.02-1.808 2.032 3.329 1.85 4.393-.155 4.987-.4 3.964-1.634zM9 65.765c0-1.068-.45-1.664-1-1.324-.55.34-1 .141-1-.441 0-.583.477-1.06 1.059-1.06s.78-.45.441-1c-1.154-1.866-2.44-1.01-3.381 2.25-.825 2.859-.948 2.95-1.013.75-.09-2.96.69-4.284 3.394-5.767 1.9-1.042 1.908-1.133.167-1.804-1.2-.462-2.46-.054-3.646 1.183-2.966 3.092-3.374 6.036-1.146 8.264C5.285 69.226 9 68.589 9 65.766zm8.033.676c1.357-1.85 1.336-1.897-.283-.628-1.385 1.087-1.75 1.104-1.75.084 0-.71-.236-1.054-.524-.766-.287.288-.232 1.282.124 2.21.356.927.719 1.554.806 1.393.088-.161.82-1.193 1.627-2.293zm84.49-.574c1.459-4.595-3.924-10.925-6.824-8.025-.799.799-.668 1.099.479 1.099.867 0 2.027.562 2.577 1.25 1.586 1.982 2.491 5.75 1.382 5.75-.549 0-1.142-.977-1.317-2.172-.46-3.12-2.635-3.414-3.377-.456-.848 3.38.11 4.628 3.549 4.628 2.029 0 3.067-.61 3.531-2.074zm-6.023-.926c-.34-.55-.141-1 .441-1s1.059.45 1.059 1-.198 1-.441 1-.72-.45-1.059-1zm-4.684-3.504c-.627-1.378-1.33-2.316-1.56-2.086-.467.467 1.561 4.59 2.258 4.59.244 0-.07-1.127-.698-2.504zM9.932 29.44c.002-.55-1.106.263-2.464 1.806-1.357 1.543-2.466 3.343-2.463 4 .003.657 1.112-.156 2.464-1.806 1.352-1.65 2.461-3.45 2.463-4zm43.533-8.604c3.704-3.252 4.784-2.981 1.785.447-1.949 2.228-.83 1.772 4.18-1.704 1.612-1.118 2.598-1.494 2.192-.836-1.21 1.957.921 1.359 2.884-.81.998-1.103 2.039-1.781 2.313-1.508.273.274 1.1-.004 1.839-.616 1.936-1.607 1.651.12-.408 2.474-.963 1.1-1.162 1.656-.443 1.234.72-.42 2.416-.887 3.772-1.036 1.356-.15 3.42-1.12 4.588-2.156 2.115-1.877 2.119-1.875.862.517-1.103 2.098-1.058 2.323.355 1.78.889-.34 1.616-.226 1.616.256 0 1.03 3.95.203 5.75-1.205 1.677-1.312 1.574-2.953-.332-5.292-1.56-1.914-1.573-1.914-.995.059.465 1.586.068 1.42-1.92-.808-1.379-1.544-2.925-2.55-3.436-2.234-.51.316-1.211.117-1.557-.442-.345-.559-1.078-1.016-1.628-1.016-.55 0-.675.526-.277 1.17.514.832.17.93-1.191.339-1.053-.458-3.033-.8-4.4-.761-1.367.038-3.28-.355-4.25-.874C63.589 7.186 63 7.228 63 7.94c0 .748-.582.759-1.933.036-3.735-1.999-7.209-3.075-6.565-2.033.794 1.285-.089 1.263-2.818-.07-1.9-.929-1.86-.79.316 1.062l2.5 2.13-2.375-.67c-1.783-.502-2.178-.35-1.584.61.449.728-.24.558-1.598-.392-2.857-2-6.033-2.363-4.143-.473 1.777 1.777 1.457 3.258-.376 1.737-1.286-1.067-1.724-1.07-2.374-.017-.63 1.02-1.387.905-3.598-.543-2.099-1.376-2.905-1.517-3.222-.566-.289.865-1.197.495-2.857-1.165-2.697-2.697-8.5-3.858-12.29-2.46-1.582.583-2.649.516-3.088-.195-.687-1.11-1.734-.213-3.511 3.009-.505.915.085.72 1.514-.5l2.341-2-.729 2c-.584 1.605-.48 1.753.53.75 3.306-3.28 11.833-.436 17.085 5.7 3.573 4.174 3.624 4.195 6.189 2.514 1.422-.932 2.586-1.247 2.586-.7 0 .546-1.35 1.552-3 2.236-1.65.683-3 1.638-3 2.121 0 1.82 3.055.77 6.465-2.225C46.183 15.451 47 15.118 47 16.397c0 .914.45 1.384 1 1.044 2.187-1.352.834 1.485-1.635 3.427-3.717 2.924-1.58 2.583 2.903-.463 4.28-2.91 5.133-1.676.982 1.42-1.512 1.13-2.203 2.067-1.535 2.084.669.018 2.806-1.365 4.75-3.072zM13.63 16.32c.083-2.936-.183-4.113-.734-3.243-1.362 2.149-.976 7.968.52 7.859.046-.004.143-2.08.214-4.616zm18.87 1.622c-.34-.55-1.068-1-1.618-1s-.722.45-.382 1c.34.55 1.068 1 1.618 1s.722-.45.382-1zm-8.699 40.75c-.869-.688-2.106-2.91-2.748-4.939-.962-3.04-.892-4.222.4-6.72 1.937-3.746 4.336-5.091 9.081-5.091 2.863 0 4.44.774 7.2 3.533 1.943 1.944 3.254 3.812 2.913 4.153-.34.34-1.523-.53-2.627-1.933-4.316-5.487-12.833-5.004-15.06.853-3.01 7.915 7.48 14.045 13.585 7.94C37.895 55.138 39 54.43 39 54.915c0 .485-1.186 1.814-2.635 2.954-3.003 2.362-10.035 2.823-12.564.823zm42.122-1.673c-4.1-4.1-4.04-8.96.154-12.488 4.413-3.714 10.088-3.578 14 .334 3.171 3.171 3.518 5.071 1.818 9.949-1.354 3.885-3.514 5.128-8.906 5.128-3.246 0-4.776-.633-7.066-2.923zm11.963.173c5.56-4.616 2.417-13.25-4.824-13.25-7.032 0-10.997 5.515-7.997 11.122 2.076 3.878 9.275 5.072 12.821 2.128zm-7.44-5.337c-1.03-1.668 1.287-3.58 2.667-2.2 1.154 1.154.432 3.287-1.113 3.287-.485 0-1.184-.49-1.554-1.087zm-40.037-.289c-.847-2.208.28-3.335 1.808-1.807.902.902.905 1.46.016 2.35-.89.89-1.324.76-1.824-.543zM21 38.486c0-1.66 5.529-5.558 7.807-5.503 1.481.036 3.874-.226 5.318-.581 1.974-.486 3.143-.09 4.715 1.598 1.15 1.234 1.868 2.604 1.596 3.044-.457.74-13.475.146-14.305-.653-.203-.195-1.023.299-1.821 1.098-1.385 1.384-3.31 1.964-3.31.997zm58.244-.21c-.691-.278-1.002-.917-.691-1.42.85-1.375 2.161-1.102 2.809.585.588 1.534.097 1.729-2.118.836zM63 36.615c0-2.682 3.715-4.967 6.71-4.128 1.534.43 3.211.681 3.726.557 1.647-.398 5.564.904 5.564 1.85 0 1.249-2.395 1.87-9.75 2.527-4.884.436-6.25.26-6.25-.806z" fill="#131313"/></svg>