<svg xmlns="http://www.w3.org/2000/svg" height="108.512" width="130.733"><path d="M54.854 107.964c-.825-.27-3.075-1.112-5-1.874-1.925-.761-6.05-1.88-9.168-2.486-6.44-1.252-10.167-4.292-12.545-10.234-1.765-4.41-2.496-4.616-4.66-1.312-1.685 2.57-1.337 4.872 1.18 7.802 1.344 1.566 1.331 1.75-.12 1.75-.893 0-2.295-1.237-3.115-2.75-1.607-2.962-1.873-2.546-1.597 2.498.136 2.486-.167 3.116-1.289 2.685-.807-.31-1.519-1.546-1.583-2.748-.425-7.966-1.48-13.753-2.693-14.76-2.132-1.769-1.705-4.421 1.284-7.974 3.259-3.872 3.394-8.117.414-13.005-1.155-1.895-2.102-4.48-2.104-5.745-.005-2.766 2.659-8.2 4.019-8.2.534 0 2.772-1.628 4.974-3.617 3.459-3.125 4.003-4.186 4.003-7.809 0-2.306.66-5.066 1.468-6.134 1.89-2.498 1.898-3.44.032-3.44-3.128 0-5.364 3.595-4.809 7.735.438 3.264.081 4.383-2.181 6.834l-2.706 2.93 2.146-2.945c1.816-2.494 2.043-3.758 1.482-8.253l-.663-5.307 3.81-1.592c3.493-1.46 3.907-1.458 4.989.021.648.887 1.476 3.855 1.84 6.595.363 2.74 1.143 4.981 1.733 4.981.59 0 .84-.604.557-1.343-.283-.739-.824-3.814-1.201-6.834-.609-4.87-.421-5.799 1.658-8.212 1.833-2.127 3.654-2.9 8.345-3.549 3.3-.456 6.212-.632 6.47-.39 1.016.943-2.666 2.298-6.286 2.313-4.682.019-7.534 1.451-8.623 4.33-1.175 3.109-.214 4.075 1.761 1.77.923-1.076 4.603-2.83 8.178-3.898 5.089-1.519 6.57-2.4 6.82-4.063.45-2.996 1.806-2.636 3.003.799.56 1.607 2.067 3.468 3.348 4.136l2.329 1.213-2.25-2.45c-1.238-1.348-2.236-3.097-2.22-3.886.024-1.125.236-1.085.977.184 1.497 2.562 6.066 5.16 11.493 6.536l5 1.268-7.252-.212c-6.975-.204-9.007.4-5.666 1.681 2.04.783 9.853.761 14.706-.04 5.016-.83 4.198-2.76-1.333-3.147-4.181-.292-10.955-3.484-10.955-5.162 0-.436 1.687.04 3.75 1.06 2.062 1.018 5.212 2.143 7 2.499 2.744.547 3.247.355 3.235-1.228-.008-1.03-.393-2.47-.855-3.198-1.097-1.731-8.508-3.37-11.66-2.58-1.373.345-2.47.183-2.47-.363 0-1.116 4.706-2.234 9.402-2.234 3.72 0 7.388 2.319 8.565 5.414.606 1.594 2.562 2.733 7.006 4.078 3.455 1.046 6.793 2.765 7.596 3.91 1.4 2 1.43 1.988 1.43-.524 0-3.747-2.916-5.875-8.078-5.893-4.114-.014-7.972-1.31-6.892-2.314.259-.24 3.17-.065 6.47.391 4.612.637 6.522 1.433 8.25 3.44 2.437 2.825 2.53 3.576 1.344 10.784-1.147 6.977.445 6.738 1.825-.273.643-3.272 1.548-6.183 2.011-6.469 1.574-.973 7.225 1.699 7.995 3.78.422 1.14.318 3.534-.23 5.32-.79 2.575-.642 3.827.714 6.051l1.71 2.805-2.122-2.439c-1.634-1.878-2.051-3.483-1.81-6.97.285-4.12.058-4.654-2.512-5.901-3.53-1.713-4.355-1-2.276 1.968.881 1.258 1.602 4.177 1.602 6.487 0 3.692.505 4.632 4.18 7.777 2.299 1.968 4.537 3.578 4.974 3.578 1.217 0 3.846 5.613 3.842 8.2-.002 1.265-.947 3.848-2.1 5.739-2.654 4.354-2.705 9.55-.121 12.39 3.769 4.143 4.358 6.24 2.28 8.12-1.7 1.54-2.68 6.263-3.158 15.236-.064 1.202-.803 2.449-1.641 2.77-1.258.483-1.42-.073-.926-3.185l.598-3.77-1.942 2.5-1.942 2.5-.022-3.25c-.012-1.787-.531-3.25-1.153-3.25-.733 0-.932 1.226-.566 3.482.726 4.47-.728 5.32-4.426 2.585-2.923-2.16-2.942-2.161-5.424-.209-1.37 1.078-4.798 2.277-7.617 2.665-2.82.388-6.973 1.544-9.231 2.57-3.123 1.417-6.378 1.85-13.605 1.806-5.225-.03-10.175-.277-11-.545zm26.76-5.354c2.894-1.1 6.44-2 7.883-2 6.83 0 13.907-8.708 12.784-15.73-.467-2.92.011-5.371 1.943-9.96l2.562-6.089-4.03-7.787c-2.791-5.395-3.848-8.514-3.437-10.15.46-1.833-.2-3.11-2.936-5.692-2.52-2.376-3.53-4.189-3.53-6.337 0-1.656-.651-3.55-1.448-4.212-1.97-1.636-13.856-1.675-20.353-.068-6.649 1.644-11.955.292-15.532-3.959l-2.48-2.948-1.536 2.344c-1.101 1.68-2.897 2.547-6.343 3.06-5.959.887-7.307 1.954-7.307 5.783 0 2.155-1.013 3.965-3.568 6.374-2.523 2.38-3.393 3.919-2.97 5.253.697 2.195-2.532 10.942-5.541 15.012L23.7 68.308l2.673 6.35c2.032 4.828 2.524 7.277 2.053 10.223-1.142 7.138 5.914 15.668 13.045 15.77 1.585.024 5.132.885 7.882 1.914 7.35 2.751 25.075 2.776 32.26.045zm-22.306-1.454c-3.277-3.278-3.143-5.232.18-2.618 3.104 2.44 6.134 2.614 10.898.623 4.38-1.83 4.527-.167.218 2.46-4.406 2.687-8.304 2.526-11.296-.465zm2.625-9.129c.048-1.165.285-1.402.604-.604.289.722.253 1.584-.079 1.916-.332.333-.569-.258-.525-1.312zm-20.19-.917c-.337-.55-.908-2.237-1.27-3.75-.783-3.277-2.638-3.748-1.968-.5.382 1.853.17 1.74-1.198-.637-.913-1.588-2.815-3.88-4.224-5.092-1.942-1.67-2.36-2.669-1.72-4.113.799-1.809.863-1.796 1.224.245.214 1.211 1.623 2.667 3.225 3.33 4.436 1.837 7.244 5.38 6.868 8.663-.18 1.57-.601 2.404-.938 1.854zm46.11-2.91c0-2.5 4.36-6.934 7.932-8.068 1.068-.339 2.116-1.607 2.33-2.819.358-2.036.45-2.062 1.211-.345.627 1.412.067 2.567-2.324 4.801-1.731 1.619-3.148 3.568-3.148 4.333 0 .765-.498 1.698-1.107 2.075-.745.46-.887-.011-.433-1.441.407-1.282.241-2.126-.418-2.126-.6 0-1.362 1.35-1.692 3-.718 3.588-2.35 3.997-2.35.59zm-29 1.003c0-1.145 6.041-3.593 8.87-3.593 5.489 0 8.263 2.21 4.13 3.29-1.1.288-2 .065-2-.495 0-.945-4.624-.532-9.25.826-.962.283-1.75.27-1.75-.028zm18.044-6.093c-.01-1.65-1.225-6.956-2.7-11.791-2.184-7.153-2.978-8.658-4.264-8.072-1.797.82-5.643.957-8.55.305-1.681-.377-2.223.51-3.706 6.058-.954 3.575-2.151 8.525-2.66 11l-.923 4.5-.12-4.04c-.205-6.906 5.575-25.47 6.604-21.21.323 1.34 1.461 1.75 4.85 1.75 3.76 0 4.426-.3 4.426-2 0-1.1.45-2 1-2s1 .844 1 1.876c0 1.031 1.094 4.35 2.432 7.374 2.947 6.665 4.727 15.67 3.508 17.75-.645 1.1-.884.7-.897-1.5zm-13.964-3.083c.048-1.165.285-1.402.604-.604.289.722.253 1.584-.079 1.916-.332.333-.569-.258-.525-1.312zm3.153-1.417c0-1.925.206-2.712.457-1.75.252.963.252 2.538 0 3.5-.251.963-.457.175-.457-1.75zm-18.232-5.77c0-.559.703-1.286 1.563-1.616.86-.33 1.325-.986 1.032-1.46-.292-.472.115-1.713.905-2.756 1.745-2.306 1.972-4.27.3-2.598-2.488 2.488-3.064 1.08-.634-1.55 4.367-4.727 4.633-7.925.393-4.718-2.534 1.916-7.536 1.873-10.337-.088-1.222-.857-2.222-1.136-2.222-.622 0 .514 1.012 1.64 2.25 2.504 1.237.863 1.687 1.593 1 1.622-.688.029-2.15-.848-3.25-1.948s-2-1.52-2-.934c0 1.644 2.15 5.298 3.913 6.653.873.67 1.103 1.232.511 1.25-2.69.08-5.424-4.629-5.424-9.342 0-2.909-.387-4.506-1-4.127-.55.34-1 .117-1-.496 0-1.59 9.543-5.698 15.822-6.812 5.114-.908 5.357-.85 6.25 1.497.51 1.343.928 5.72.928 9.729 0 5.913-.424 7.908-2.25 10.582-2.417 3.54-6.75 6.897-6.75 5.23zm5.127-4.98c1.244-1.586 1.209-1.621-.377-.377-.963.755-1.75 1.542-1.75 1.75 0 .823.821.293 2.127-1.373zm-1.127-12.25c1.15-1.15 2-3.333 2-5.139v-3.14l-4.797.569c-5.831.69-10.203 2.563-10.203 4.37 0 2.562 3.902 5.34 7.5 5.34 2.167 0 4.262-.762 5.5-2zm-5.833-3c.183-.55.783-1 1.333-1 .55 0 1.15.45 1.333 1 .184.55-.416 1-1.333 1s-1.517-.45-1.333-1zm33.347 18.832c-4.932-3.88-6.618-11.52-4.872-22.082.565-3.42.9-3.75 3.807-3.75 6.377 0 18.55 4.708 18.55 7.174 0 .52-.484.644-1.077.278-.692-.427-.997.358-.85 2.19.126 1.572.162 3.786.079 4.92-.173 2.366-3.644 6.454-5.44 6.407-.755-.02-.613-.492.376-1.25 1.763-1.355 3.913-5.009 3.913-6.653 0-.586-.938-.128-2.083 1.018-1.146 1.145-2.38 1.787-2.742 1.425-.362-.362.125-1.097 1.083-1.633s1.742-1.428 1.742-1.982-1-.307-2.223.55c-2.8 1.961-7.803 2.004-10.336.088-4.24-3.207-3.974-.009.393 4.718 2.43 2.63 1.854 4.038-.634 1.55-.864-.864-1.2-.88-1.2-.059 0 .628.474 1.434 1.053 1.792.579.358.861 1.172.627 1.809-.234.637.496 2.17 1.621 3.408 2.594 2.85 1.78 2.888-1.787.082zM89.854 55.61c4.123-4.123 1.528-6.548-8.25-7.713l-4.75-.565v3.139c0 4.22 3.066 7.14 7.5 7.14 2.167 0 4.262-.763 5.5-2zm-7.771-3.187c.617-1.852 2.461-2.062 3.116-.355.415 1.08-.022 1.542-1.46 1.542-1.14 0-1.876-.528-1.656-1.187zm-45.054-6.854c.265-.802 2.472-2.984 4.903-4.85 2.984-2.287 3.65-3.147 2.047-2.642-1.634.514-2.162.402-1.691-.36.985-1.594 6.846-1.362 9.125.362 1.81 1.369 1.667 1.47-2.13 1.5-3.223.025-4.97.802-8.402 3.74-2.383 2.04-4.116 3.053-3.852 2.25zm54.238-1.055c-2.72-3.006-6.79-4.899-10.613-4.935-3.118-.03-3.193-.113-1.359-1.5 2.606-1.971 7.989-1.863 9.686.195 1.241 1.504 1.163 1.552-.811.5-3.915-2.086-3.705-1.228.434 1.77 4.141 3 5.792 4.858 5.01 5.639-.241.242-1.298-.51-2.347-1.669zm13.836 53.346c.257-2.062.367-3.876.244-4.03-.648-.82-3.562 5.159-3.1 6.361.996 2.597 2.382 1.466 2.856-2.33zm-85.59-6.694c-.328-.856-1.06-1.556-1.628-1.556-1.174 0-1.361 2.976-.353 5.603.615 1.605.765 1.571 1.628-.363.523-1.17.682-2.83.353-3.684zm94.326.694c.008-1.237-.387-2.25-.878-2.25-1.357 0-2.231 3.034-1.52 5.273.501 1.582.812 1.707 1.507.61.481-.76.882-2.395.89-3.633zm-2.571-6.73c-.94-4.41-2.634-6.835-2.11-3.02.227 1.65.766 3.9 1.196 5 .731 1.866.667 1.89-.957.366-1.915-1.798-2.127-3.882-1.158-11.366l.647-5-1.942 4c-2.644 5.446-2.614 10.565.081 13.991 2.07 2.632 2.235 2.674 3.53.905.853-1.169 1.118-2.976.713-4.876zM25.83 86.653c1.58-2.95 1.154-6.13-1.477-11.043-2.132-3.98-2.415-4.2-2.455-1.899-.025 1.43.444 4.005 1.043 5.721.864 2.479.76 3.775-.5 6.303-.874 1.75-1.588 3.58-1.588 4.064 0 1.397 3.847-1.035 4.977-3.146zm-4.043-5.043c.007-3.318-1.455-.837-2.357 4-.648 3.477-.642 3.484.85 1 .826-1.375 1.504-3.625 1.507-5zm-3.417 1.93c.861-3.924.503-4.206-2.482-1.955-2.079 1.569-2.242 2.071-1.112 3.432 1.94 2.337 2.837 1.969 3.594-1.477zm97.579 1.457c1.15-1.385 1.004-1.887-1.02-3.525-2.9-2.348-3.462-1.9-2.59 2.068.758 3.453 1.653 3.815 3.61 1.457zm-5.731-24.435c-.87-2.173-2.126-3.95-2.792-3.95-.666 0-1.855-1.436-2.642-3.191-.786-1.755-1.97-3.36-2.63-3.567-1.76-.551-.038 4.789 3.657 11.335 1.673 2.965 3.06 6.411 3.082 7.657.033 1.9.27 1.732 1.472-1.034 1.261-2.903 1.244-3.773-.147-7.25zm-83.494-3.25c1.85-3.74 3.098-7.066 2.771-7.393-.961-.96-3.395 1.575-4.062 4.233-.34 1.353-1.074 2.46-1.633 2.46-.657 0-.621-.74.1-2.086 1.38-2.58.53-3.637-1.545-1.916-.85.706-1.304 2.048-1.007 2.981.296.934-.142 3.328-.975 5.32-1.211 2.9-1.278 4.137-.333 6.21l1.18 2.59 1.07-2.8c.588-1.54 2.584-5.86 4.434-9.599zm-7.107 2.115c1.583-4.194.807-4.82-1.19-.958-1.775 3.433-1.91 4.142-.792 4.142.429 0 1.321-1.433 1.982-3.184zm94.237 2.38c0-1.502-5.95-10.196-6.978-10.196-1.729 0-1.14 1.537 1.451 3.79 1.36 1.183 2.76 3.29 3.109 4.68.58 2.312 2.418 3.623 2.418 1.726zm-83-23.07c0-7.024-2.05-5.665-2.77 1.836-.269 2.794-.88 5.322-1.36 5.618-.478.296-.87 1.04-.87 1.654 0 .613 1.125.058 2.5-1.234 2.082-1.955 2.5-3.273 2.5-7.874zm73.253 7.624c-.545-.687-1.225-3.426-1.51-6.087-.284-2.66-1.018-5.337-1.63-5.95-1.941-1.94-1.41 9.303.542 11.459 1.872 2.069 4.19 2.585 2.598.578zM44.07 30.237c3.53-.784 5.372-1.724 5.59-2.854.294-1.529-.241-1.495-5.758.369-3.79 1.28-6.514 2.864-7.229 4.206-1.03 1.932-.979 2.014.493.8.901-.743 4.008-1.878 6.904-2.521zm49.19.38c-1.308-1.308-12.41-5.074-12.39-4.203.04 1.85 1.844 3.077 5.486 3.733 2.199.396 4.67 1.078 5.49 1.517 1.812.968 2.742.28 1.414-1.048zm-82.27 71.455c-.075-1.121-2.181-3.748-4.681-5.837l-4.545-3.8.677-8.662c.372-4.765 1.247-9.78 1.944-11.145 1.14-2.232.975-2.816-1.631-5.785-3.366-3.833-3.488-5.15-1.227-13.28 1.574-5.661 1.57-6.342-.072-11.55-1.604-5.088-1.616-5.73-.15-7.969.877-1.338 2.002-2.434 2.5-2.434 1.776 0 4.049-3.184 4.049-5.67 0-4.513 3.055-9.278 7.69-11.994 3.793-2.223 5.181-2.509 9.637-1.985 4.349.511 5.765.245 8.609-1.62 8.47-5.552 9.794-5.803 14.74-2.786 2.81 1.712 3.322 1.762 4.428.43 2.583-3.112 7.082-4.611 12.311-4.102 3.921.382 6 .014 9.085-1.609C82.984-2.266 97.81.317 102.28 7.14c2.4 3.663 1.118 4.367-2.188 1.201-1.506-1.443-4.314-3.28-6.24-4.082C88.4 1.988 78.384 1.77 75.527 3.861c-1.414 1.036-.1 1.272 7.65 1.378 9.889.135 15.843 1.948 17.682 5.383.748 1.398 1.836 1.649 5.415 1.245 8.14-.917 16.579 6.246 16.579 14.074 0 2.486 2.273 5.67 4.048 5.67.498 0 1.616 1.084 2.483 2.408 1.44 2.196 1.436 2.899-.04 7.976-1.478 5.083-1.483 6.1-.055 11.673 2.031 7.93 1.978 9.147-.54 12.35-1.766 2.243-1.93 3.111-1.013 5.384.611 1.516.974 7.151.825 12.798-.209 7.899-.678 10.716-2.16 12.98-1.101 1.68-2.067 2.375-2.305 1.66-.723-2.169-2.3-1.32-3.752 2.021-1.403 3.227-1.413 3.23-1.452.557a5.108 5.108 0 0 1 2.15-4.227c1.205-.844 1.873-1.85 1.486-2.238-.388-.388-2.273.815-4.19 2.673-1.917 1.858-3.485 2.814-3.485 2.125 0-.689 1.414-2.544 3.143-4.123 2.78-2.54 3.073-3.311 2.545-6.693-.548-3.512-.478-3.665.857-1.883.8 1.068 1.455 3.07 1.455 4.45 0 1.782.31 2.2 1.07 1.44 2.284-2.285-.158-8.627-5.219-13.55-2.668-2.595-4.851-5.418-4.851-6.272 0-.854 1.853-3.564 4.119-6.022 4.052-4.396 4.176-4.912 2.413-9.987-.686-1.971-.673-1.972.886-.059 2.466 3.027 1.886 6.351-1.918 10.994-3.897 4.755-4.298 6.666-1.827 8.693 1.49 1.222 1.61 1.127 1.096-.871-.382-1.48.232-3.352 1.803-5.5 1.31-1.791 3.165-4.75 4.122-6.574 1.568-2.988 1.592-3.582.246-5.98-.822-1.464-3.363-3.918-5.648-5.452-6.143-4.126-8.586-8.608-7.746-14.211.372-2.483.408-5.588.078-6.9-.733-2.92-5.552-5.104-9.515-4.312-2.544.51-2.944.25-3.441-2.237-.702-3.511-6.353-6.463-11.274-5.889-1.867.218-3.394.07-3.394-.33 0-1.397 3.539-1.498 7.953-.227 2.45.705 4.68 1.056 4.955.78.276-.275 1.257.962 2.182 2.75 1.392 2.692 2.323 3.29 5.43 3.49 2.254.143 4.704 1.137 6.145 2.49 2.12 1.992 2.377 3.046 2.224 9.107-.256 10.157 1.662 10.67 2.496.666.556-6.657.383-8.633-.93-10.636-1.652-2.52-8.577-6.23-11.705-6.27-.963-.012-1.75-.53-1.75-1.15 0-1.451 7.116-.38 11.076 1.668 1.577.815 4.004 3.157 5.395 5.203 1.816 2.673 2.529 3.193 2.529 1.847 0-1.032-2.186-4.061-4.857-6.733-4.398-4.397-5.273-4.847-9.25-4.757-2.416.055-5.49.406-6.833.78-1.58.442-3.827-.005-6.381-1.268-3.21-1.589-4.475-1.75-6.81-.868-1.578.595-2.87.68-2.87.189 0-1.558 5.083-2.243 8.607-1.161 2.586.793 3.394.748 3.394-.191 0-2.09-4.491-5.58-7.18-5.58-3.52 0-8.115 3.762-7.494 6.137.324 1.24.1 1.622-.67 1.14-.636-.4-3.181-1.015-5.656-1.368l-4.5-.642 4.151-.134c3.625-.117 4.414-.579 6.223-3.646L81.8 6.587l-3.223 1.687c-1.773.928-4.175 1.796-5.338 1.93-1.163.132-4.863 1.628-8.221 3.324-6.72 3.392-10.74 4.178-5.164 1.01l3.5-1.989-3.5.518-3.5.518 3-1.442c1.65-.793 4.208-1.463 5.685-1.488 1.476-.024 3.951-.551 5.5-1.17l2.815-1.127-2.818-.805c-3.564-1.02-9.92 1.124-14.7 4.957-3.284 2.634-3.67 2.72-5.817 1.294-1.265-.84-4.33-1.527-6.81-1.527-3.36 0-4.08-.241-2.82-.946.929-.52 3.327-.69 5.327-.379 3.355.523 3.487.454 1.697-.887-2.872-2.152-6.333-1.772-9.105 1-3.446 3.446-3.13 4.565.94 3.317 3.524-1.082 8.606-.397 8.606 1.16 0 .492-1.278.412-2.84-.177-2.292-.866-3.594-.704-6.75.836-2.15 1.05-3.948 2.584-3.994 3.41-.046.824-.697 2.933-1.445 4.685-1.179 2.76-1.737 3.111-4.16 2.627-3.589-.718-8.565 1.336-9.368 3.866-.343 1.08-.326 4.522.037 7.65.652 5.618.613 5.735-3.273 9.679-2.163 2.196-5.345 5.04-7.07 6.318-4.907 3.639-5.025 6.368-.553 12.86 2.396 3.48 3.751 6.53 3.618 8.145-.167 2.014.05 2.316.992 1.375.663-.663 1.607-1.206 2.098-1.206.49 0-1.198 2.031-3.752 4.513-4.229 4.11-5.304 7.378-2.012 6.115 1.008-.387 1.19.335.757 3.005-.492 3.03-.138 3.909 2.572 6.384 4.389 4.009 3.956 5.904-.462 2.025-1.983-1.74-3.847-2.923-4.142-2.628-.295.295.471 1.352 1.702 2.35 1.563 1.264 2.1 2.557 1.778 4.274-.368 1.969-.488 2.054-.597.424zM6.932 87.288c-.77-.77-1.078-.213-1.078 1.956 0 3.947 1.403 5.36 1.828 1.84.18-1.494-.157-3.203-.75-3.796zM3.907 89.06c-.485-1.622-.92-2.199-.967-1.281-.096 1.862.971 5.107 1.504 4.574.19-.189-.053-1.67-.537-3.293zm4.488-10.894c2.03-4.858.549-8.246-2.341-5.356-1.873 1.873-1.466 8.8.518 8.8.211 0 1.031-1.55 1.823-3.444zM125.95 73.36c-.576-1.512-1.508-2.75-2.071-2.75-1.417 0-1.286 5.333.211 8.62l1.237 2.714.835-2.917c.502-1.753.417-4.014-.212-5.667zM4.354 60.695c0-3.818-.279-4.683-1.25-3.877-1.52 1.26-1.613 4.246-.215 6.858.57 1.064 1.132 1.934 1.25 1.934.118 0 .215-2.211.215-4.915zm123.893 2.334c.976-2.545.703-5.094-.668-6.232-1-.83-1.269-.105-1.25 3.375.025 4.514.825 5.705 1.918 2.857zM6.354 49.61c0-.733-.563-1.52-1.25-1.75-.744-.248-1.25.461-1.25 1.75 0 1.29.506 1.998 1.25 1.75.687-.229 1.25-1.016 1.25-1.75zm120.072-1.761c-.333-.333-1.157-.054-1.83.62-.967.966-.91 1.421.266 2.157 1.063.664 1.59.485 1.83-.62.186-.854.066-1.824-.266-2.157zm-115.154.154c.984-.377 1.576-1.796 1.567-3.75-.013-2.503-.234-2.838-1.087-1.643-.835 1.17-.934.949-.446-1 2.534-10.125 1.437-11.833-3.843-5.989-3.74 4.14-4.203 5.504-2.683 7.904.662 1.045 1.221.325 2.146-2.762.688-2.297 1.923-4.734 2.744-5.415 1.216-1.008 1.186-.644-.162 1.963-1.76 3.404-2.274 11.3-.736 11.3.505 0 1.63-.274 2.5-.608zm111.582-2.925c0-1.942-.681-5.162-1.513-7.153-.832-1.992-1.334-3.801-1.115-4.02.646-.646 4.626 8.16 4.643 10.271.013 1.615.176 1.687.985.434 1.767-2.734 1.042-5.032-2.933-9.288-3.485-3.732-4.015-3.998-4.655-2.336-.398 1.032-.203 3.314.433 5.071 1.479 4.091 1.57 6.742.155 4.553-.766-1.184-.973-.963-.985 1.05-.016 2.762 1.612 4.95 3.685 4.95.821 0 1.3-1.3 1.3-3.532zm-104.572-8.65c.07-7.1.132-7.267 3.547-9.574 2.231-1.507 4.28-2.146 5.723-1.783 1.855.465 2.603-.131 4.275-3.408 1.115-2.185 2.024-4.103 2.022-4.263-.003-.16-2.985-.43-6.626-.6l-6.621-.31-4.874 5.057c-2.68 2.781-4.874 5.838-4.874 6.792 0 1.124.891.424 2.529-1.986 2.898-4.265 6.5-6.404 12.366-7.342 5.924-.947 5.044.812-1.561 3.12-8.282 2.893-9.48 5.003-8.678 15.277.801 10.266 2.666 9.607 2.772-.98zM5.339 34.762c-.756-.756-2.485 1.053-2.485 2.598 0 1.365.232 1.315 1.418-.307.78-1.067 1.26-2.098 1.067-2.291zm122.056.915c-.363-.587-1.138-1.067-1.723-1.067-.663 0-.587.574.202 1.524 1.371 1.653 2.597 1.284 1.521-.457zM26.715 15.498c3.85.08 7.214-.2 7.474-.622.26-.421-3.053-.766-7.363-.766-7.307 0-8.044.199-10.904 2.937-1.688 1.616-3.068 3.392-3.068 3.947 0 .555 1.543-.487 3.43-2.315 3.263-3.164 3.768-3.318 10.43-3.18zm88.316 1.83c-3.081-3.08-3.559-3.218-11.102-3.218-4.336 0-7.675.338-7.42.75.255.413 3.727.75 7.717.75 6.749 0 7.453.208 10.118 2.99 1.575 1.644 3.099 2.755 3.386 2.468.287-.287-.928-1.97-2.699-3.74zM62.854 5.948c0-.36-7.318 2.521-7.482 2.944-.046.12-.714 1.038-1.483 2.04-.886 1.154.502.64 3.783-1.4 2.85-1.771 5.182-3.384 5.182-3.585zm35.108 3.604c-1.315-1.095-2.665-1.719-2.998-1.385-.71.71 2.78 3.459 4.331 3.41.582-.018-.017-.93-1.333-2.025zM27.32 98.542c-2.353-4.55-1.21-5.86 1.34-1.538 2.48 4.203 2.586 4.606 1.22 4.606-.535 0-1.688-1.38-2.56-3.067zm-12.465-25.37c0-.856-1.575-3.3-3.5-5.43s-3.5-4.795-3.5-5.921c0-2.647.994-5.21 2.02-5.21.443 0 .309 1.317-.3 2.929-1.024 2.713-.797 3.263 3.087 7.477 4.317 4.683 4.92 6.025 3.193 7.093-.55.34-1-.082-1-.938zm22-53.908c0-1.203 7.342-2.56 8.906-1.647 1.195.699.675.94-2.074.963-2.018.017-4.38.303-5.25.637-.87.334-1.582.355-1.582.047z" fill="#232323"/></svg>