<svg xmlns="http://www.w3.org/2000/svg" viewBox="0 0 512 512"><path d="M501.804 203.71c1.483-16.259 1.544-57.54-29.528-91.694-31.746-34.896-73.368-38.408-94.14-37.643C352.919 30.14 306.73 2.312 257.241 2.312c-.414 0-.826.002-1.24.006-.418-.003-.824-.006-1.24-.006-49.485 0-95.681 27.83-120.896 72.062-20.778-.768-62.398 2.751-94.14 37.643-31.07 34.153-31.01 75.436-29.528 91.694-21.2 45.893-8.552 101.352 30.576 130.917 21.804 16.475 49.349 23.33 77.56 19.314 13.302-1.896 25.901-6.102 37.362-12.34 8.627 8.298 21.809 26.115 21.809 57.509v110.578h156.993V399.11c0-31.393 13.182-49.21 21.809-57.509 11.461 6.237 24.06 10.443 37.361 12.34 5.27.75 10.516 1.122 15.708 1.122 22.594 0 44.122-7.038 61.852-20.436 39.128-29.565 51.775-85.024 30.577-130.917zm-200.71 195.399v77.175h-90.187v-77.175c0-26.296-7.013-46.13-15.57-60.554 11.953 5.752 26.443 10.065 43.963 11.76v56.828h33.403v-56.828c17.52-1.695 32.01-6.008 43.961-11.76-8.557 14.424-15.57 34.258-15.57 60.554zm149.995-91.133c-14.654 11.071-33.377 15.645-52.71 12.895-15.108-2.153-28.916-8.576-40.115-18.451 14.383-21.729 16.717-42.477 16.942-44.848l-33.255-3.144c-.015.153-1.743 15.638-12.649 31.189-14.938 21.297-39.599 32.095-73.303 32.095-33.113 0-57.516-10.435-72.53-31.015-11.516-15.787-13.415-32.217-13.432-32.381l.011.112-33.255 3.144c.225 2.37 2.559 23.119 16.942 44.848-11.199 9.875-25.008 16.298-40.115 18.452-19.337 2.752-38.058-1.824-52.71-12.895-27.642-20.887-35.701-61.126-18.746-93.603l2.534-4.855-.833-5.412c-1.032-6.715-4.894-41.629 20.565-69.613 30.182-33.176 74.526-26.331 76.397-26.029l12.468 2.047 5.36-11.442c18.234-38.922 56.328-63.784 97.162-63.35l.183.005.179-.002c.356-.003.707-.006 1.062-.006 40.387 0 78.026 24.773 96.101 63.354l5.359 11.442 12.468-2.047c1.872-.306 46.217-7.145 76.397 26.029 25.461 27.988 21.598 62.896 20.566 69.61l-.833 5.414 2.534 4.856c16.957 32.475 8.899 72.715-18.744 93.601z"/></svg>