<svg xmlns="http://www.w3.org/2000/svg" height="107.013" width="120.065"><path d="M15 104.65c0-1.546 1.73-3.982 5-7.04 2.75-2.573 5-4.88 5-5.126 0-.247-1.934-3.042-4.299-6.21-8.723-11.692-11.548-24.336-8.592-38.462 2.484-11.873 12.631-25.17 23.797-31.183 6.408-3.45 17.872-6.582 24.094-6.582 5.544 0 17.11 2.94 22.57 5.737 20.305 10.403 30.894 34.174 24.54 55.092-2.196 7.231-5.143 13.09-8.334 16.575-2.741 2.992-2.182 4.736 3.224 10.062 3.108 3.06 5 5.79 5 7.212 0 3.622-1.997 2.733-8.636-3.848l-6.19-6.135L88.521 97c-7.128 4.405-13.181 6.827-18.827 7.532-3.147.394-5.967 1.113-6.267 1.598-.3.486-1.843.883-3.428.883s-3.128-.397-3.428-.883c-.3-.485-3.059-1.197-6.13-1.58-5.853-.732-10.462-2.487-16.656-6.343-4.422-2.753-5.552-2.34-11.62 4.241-4.677 5.075-7.166 5.84-7.166 2.202zm59.5-6.337c12.54-4.866 19.673-11.117 25.108-22.004 3.783-7.579 3.892-8.09 3.884-18.296-.008-9.85-.214-10.922-3.328-17.307-4.235-8.682-11.86-16.345-20.673-20.773-6.671-3.352-7.057-3.42-19.399-3.42-12.237 0-12.784.093-19.398 3.327-8.816 4.31-16.558 12.054-20.864 20.866-3.143 6.432-3.322 7.384-3.267 17.307.054 9.796.282 10.963 3.396 17.411 1.836 3.802 4.879 8.617 6.761 10.7 3.766 4.169 11.833 9.68 17.28 11.805 7.909 3.085 23.047 3.276 30.5.384zm-35.896-32.89c-1.107-2.884.413-3.41 9.833-3.41 6.498 0 9.65-.4 10.414-1.32.66-.796 1.205-7.45 1.372-16.75.263-14.671.375-15.43 2.277-15.43 1.91 0 2.013.761 2.285 17 .157 9.35.036 18.012-.269 19.25-.537 2.182-.927 2.25-12.928 2.25-10.389 0-12.472-.256-12.984-1.59zM4.75 34.932C3.788 34.371 3 33.245 3 32.43c0-.815-.675-1.74-1.5-2.057C.342 29.93 0 28 0 21.906c0-4.342.338-7.906.75-7.92.413-.015 1.818-1.76 3.123-3.877C5.178 7.99 7.98 5.19 10.096 3.886c2.118-1.306 3.862-2.711 3.877-3.123C14.015-.417 31-.143 31 1.037c0 .564 1.125 1.453 2.5 1.976 5.056 1.922 3.35 4.764-11.58 19.296-7.745 7.537-14.382 13.69-14.75 13.673-.369-.017-1.457-.489-2.42-1.05zM19.336 18.89C25.2 13.323 30 8.203 30 7.513 30 1.72 15.819 3.05 9.429 9.44c-6.22 6.22-7.512 19.572-1.893 19.572.624 0 5.934-4.556 11.8-10.123zm78.414 3.292C83.216 7.71 81.561 4.89 86.5 3.012c1.375-.522 2.5-1.41 2.5-1.974 0-1.513 15.715-1.313 17.688.226 2.076 1.618 10.444 9.986 12.062 12.062 1.898 2.434 1.682 16.308-.265 17.055-.833.32-1.947 1.718-2.475 3.107-.55 1.446-1.72 2.496-2.735 2.456-.976-.038-7.963-6.23-15.525-13.76zm17.05 5.63c1.996-1.996 1.398-9.892-1.082-14.27-5.075-8.96-19.355-13.378-23.141-7.158-.919 1.508.542 3.3 9.923 12.17 6.05 5.722 11.473 10.415 12.05 10.43.578.016 1.59-.511 2.25-1.171z" fill="#4e4e4e"/></svg>