<?xml version="1.0" encoding="UTF-8" standalone="no"?>
<svg
   xmlns:dc="http://purl.org/dc/elements/1.1/"
   xmlns:cc="http://creativecommons.org/ns#"
   xmlns:rdf="http://www.w3.org/1999/02/22-rdf-syntax-ns#"
   xmlns:svg="http://www.w3.org/2000/svg"
   xmlns="http://www.w3.org/2000/svg"
   viewBox="0 0 120.06486 107.0125"
   height="107.0125"
   width="120.06486"
   id="svg2"
   version="1.1">
  <metadata
     id="metadata8">
    <rdf:RDF>
      <cc:Work
         rdf:about="">
        <dc:format>image/svg+xml</dc:format>
        <dc:type
           rdf:resource="http://purl.org/dc/dcmitype/StillImage" />
        <dc:title></dc:title>
      </cc:Work>
    </rdf:RDF>
  </metadata>
  <defs
     id="defs6" />
  <path
     id="path12"
     d="m 15,104.64934 c 0,-1.54553 1.72994,-3.98131 5,-7.040069 2.75,-2.572303 5,-4.878856 5,-5.125674 0,-0.246818 -1.93435,-3.041286 -4.29856,-6.209928 C 11.97822,74.58231 9.1532797,61.937609 12.1087,47.811723 14.59274,35.938917 24.74048,22.641934 35.90589,16.629359 42.31352,13.17885 53.77779,10.046777 60,10.046777 c 5.54399,0 17.1091,2.939914 22.56927,5.737231 20.30573,10.402882 30.89448,34.173918 24.54073,55.092267 -2.19626,7.230708 -5.14263,13.090251 -8.33435,16.574788 -2.74096,2.992429 -2.18211,4.736272 3.22435,10.061439 3.10764,3.060908 5,5.790608 5,7.212408 0,3.62247 -1.99698,2.7328 -8.63637,-3.84757 l -6.19018,-6.135154 -3.65107,2.256484 c -7.12834,4.40555 -13.18137,6.82731 -18.82769,7.53277 -3.14662,0.39315 -5.96673,1.11222 -6.26692,1.59793 -0.30019,0.48572 -1.84269,0.88313 -3.42777,0.88313 -1.58508,0 -3.12758,-0.39741 -3.42777,-0.88313 -0.30019,-0.48571 -3.0589,-1.19711 -6.13047,-1.58088 C 44.58892,103.81723 39.97979,102.06206 33.78561,98.205796 29.36377,95.452924 28.23383,95.865423 22.16676,102.44742 17.48883,107.52237 15,108.28704 15,104.64934 Z M 74.5,98.312871 C 87.03973,93.447039 94.17315,87.195548 99.60771,76.30934 c 3.7836,-7.579116 3.89206,-8.090044 3.88411,-18.296838 -0.008,-9.849619 -0.2138,-10.921579 -3.32787,-17.306132 C 95.92893,32.023599 88.30346,24.36112 79.49056,19.932634 72.81973,16.580538 72.43384,16.512502 60.09217,16.512502 c -12.23687,0 -12.78421,0.0939 -19.3983,3.327871 -8.8157,4.310453 -16.55758,12.053144 -20.86382,20.865997 -3.14267,6.431594 -3.32247,7.383942 -3.26737,17.306132 0.0544,9.7962 0.28208,10.963293 3.39666,17.411871 1.83609,3.80153 4.87842,8.616548 6.76073,10.70004 3.76564,4.168109 11.8333,9.679314 17.27993,11.804313 7.90857,3.085524 23.04691,3.276194 30.5,0.384145 z M 38.60374,65.42226 c -1.10629,-2.882953 0.41288,-3.409758 9.83283,-3.409758 6.49812,0 9.65009,-0.399495 10.41397,-1.31991 0.66027,-0.795574 1.20547,-7.449543 1.37244,-16.75 0.26339,-14.671085 0.3754,-15.43009 2.27702,-15.43009 1.91038,0 2.01278,0.761726 2.28518,17 0.15684,9.35 0.0358,18.0125 -0.26906,19.25 -0.53754,2.182251 -0.92681,2.25 -12.92818,2.25 -10.38867,0 -12.47187,-0.25514 -12.9842,-1.590242 z M 4.75,34.932403 C 3.7875,34.371798 3,33.246359 3,32.431427 3,31.616495 2.325,30.690711 1.5,30.374128 0.34198,29.929754 0,27.999032 0,21.905513 0,17.564357 0.3375,14.000398 0.75,13.985605 1.1625,13.970815 2.56793,12.226245 3.87319,10.108792 5.17844,7.991338 7.97884,5.1909418 10.09629,3.885689 12.21374,2.5804361 13.95831,1.175002 13.9731,0.762502 14.0154,-0.417268 31,-0.1431999 31,1.0372528 31,1.6008658 32.125,2.4897279 33.5,3.012502 38.55646,4.9349664 36.85092,7.7769054 21.91967,22.308786 14.17549,29.84583 7.53799,35.998818 7.16967,35.982093 6.80135,35.965373 5.7125,35.493008 4.75,34.932403 Z M 19.3356,18.890093 C 25.20102,13.322767 30,8.2028675 30,7.5125373 30,1.7211858 15.81902,3.0506287 9.4285697,9.4410734 3.20861,15.661031 1.91724,29.012502 7.5356,29.012502 c 0.62458,0 5.93458,-4.555084 11.8,-10.122409 z M 97.75,22.182454 C 83.2159,7.7098187 81.5612,4.8902286 86.5,3.012502 87.875,2.4897279 89,1.6008658 89,1.0372528 c 0,-1.5132146 15.71455,-1.3130945 17.68783,0.2252492 2.07579,1.6182622 10.44391,9.98638 12.06217,12.062174 1.89761,2.434124 1.68203,16.308061 -0.26501,17.055211 -0.83325,0.31975 -1.94711,1.717895 -2.47525,3.106989 -0.54969,1.445808 -1.71902,2.496083 -2.73499,2.456527 -0.97611,-0.038 -7.96225,-6.230431 -15.52475,-13.760949 z m 17.05,5.630048 c 1.99638,-1.996376 1.39786,-9.892578 -1.08168,-14.270429 C 108.64302,4.5811545 94.36254,0.1640427 90.57651,6.3840519 89.65846,7.8923011 91.11918,9.6837732 100.5,18.55455 c 6.05,5.721054 11.4725,10.414524 12.05,10.429934 0.5775,0.01541 1.59,-0.511982 2.25,-1.171982 z"
     style="fill:#4e4e4e" />
</svg>
