<svg xmlns="http://www.w3.org/2000/svg" height="96.956" width="120.103"><path d="M7.814 94.402c-2.085-1.365-4.294-3.588-4.91-4.942C2.286 88.107 1.403 87 .942 87c-1.76 0-.874-10.896 1.156-14.226 1.666-2.731 1.997-5.045 2-13.959.002-5.877.443-11.839.98-13.25 1.306-3.437 6.666-6.557 11.274-6.561l3.75-.004.015-5.75c.02-7.343.981-9.028 4.29-7.52 1.806.822 2.745.82 3.572-.007 1.882-1.882 2.994.387 3.318 6.777l.305 6 13.42.28c7.62.16 13.833-.133 14.377-.677 1.475-1.475-.063-5.894-2.3-6.604-2.246-.713-2.685-3.298-.69-4.063 1.573-.604 11.997 4.02 13.706 6.08.967 1.164.906 1.578-.297 2.04-.83.318-2.344.436-3.363.261-1.121-.192-1.853.275-1.853 1.183 0 1.088 1.354 1.586 4.934 1.812 8.468.536 8.85.234 10.983-8.725 1.838-7.713 3.998-10.774 5.268-7.465.336.874.094 3.826-.537 6.56-.632 2.734-1.148 5.322-1.148 5.751 0 .43 3.488 1.026 7.75 1.325 16.843 1.182 28.25 13.073 28.25 29.447 0 3.948-.392 7.42-.87 7.715-.48.296-1.13 1.83-1.446 3.41-.967 4.835-10.287 13.595-17.184 16.152-11.503 4.265-25.186.876-32.914-8.152l-3.196-3.734-14.93-.15c-11.672-.117-15.07.145-15.575 1.202l-2.552 5.328c-4.287 8.947-15.51 12.237-23.622 6.926zm15.54-3.555c3.02-1.583 5.082-5.825 5.082-10.456 0-3.699-.568-5.039-3.362-7.921-2.922-3.015-3.996-3.47-8.182-3.47-4.049 0-5.388.523-8.39 3.274-3.072 2.814-3.582 3.92-3.642 7.876-.15 9.954 9.384 15.47 18.493 10.697zm-9.584-7.514c-1.475-1.475-.645-6.205 1.192-6.788 4.026-1.278 7.013 1.958 5.102 5.527-.992 1.855-4.915 2.64-6.294 1.261zm87.946 4.352c5.744-2.923 8.371-5.576 11.475-11.587 3.52-6.817 3.68-13.6.481-20.36-10.218-21.6-39.17-20.457-47.525 1.875-2.463 6.583-2.505 10.475-.175 16.216 3.309 8.153 9.046 13.309 18.131 16.294 4.126 1.356 12.413.21 17.613-2.438zM83.5 81.093c-8.408-3.819-12.812-12.213-10.364-19.757 3.588-11.058 13.593-16.026 23.736-11.788 5.337 2.23 7.942 5.066 9.806 10.677 1.399 4.212 1.454 5.6.376 9.45-1.607 5.74-6.346 10.786-11.463 12.207-5.426 1.506-7.307 1.383-12.091-.79zm13.683-4.8c5.399-3.189 7.478-11.38 4.4-17.333C99.967 55.837 93.607 52 90.044 52c-3.607 0-9.078 3.177-11.055 6.42-1.05 1.72-1.88 4.937-1.882 7.288-.003 3.516.628 4.872 3.841 8.25C84.388 77.574 85.294 78 89.544 78c2.682 0 6.008-.743 7.639-1.706zm-10.696-8.735c-1.16-3.025.082-5.053 3.289-5.365 2.48-.241 3.3.143 3.824 1.798.371 1.168.132 2.751-.537 3.557-1.553 1.872-5.859 1.879-6.576.01zM60.662 66.25c.014-10.294 1.715-15.472 6.503-19.806 1.092-.988 1.565-2.055 1.051-2.37-.513-.316-13.423-.574-28.688-.574-28.352 0-28.17-.022-28.842 3.428-.045.235 5.092.318 11.417.183 11.977-.255 15 .226 15 2.389 0 2.134-2.805 2.58-15.272 2.431-11.56-.139-14.765.581-13.282 2.982.432.699 5.653 1.087 14.613 1.087 11.646 0 13.941.244 13.941 1.48 0 2.046-2.65 2.492-16.5 2.775l-12 .245V63c0 1.714.472 2.388 1.5 2.143 8.847-2.106 16.26.317 20.727 6.774l2.773 4.007 13.523.038L60.648 76zm-33.853-35.5c-.238-1.238-.434-.225-.434 2.25s.196 3.487.434 2.25c.238-1.238.238-3.263 0-4.5zm-2.706-11.215C24.103 17.63 29.927 11 31.6 11c2.651 0 2.17 2.696-1.123 6.289-3.498 3.817-6.374 4.83-6.374 2.246zm35.5-7.657c-8.51-1.53-9.5-1.873-9.5-3.29 0-2.13 1.907-2.38 9.84-1.29 4.755.653 7.536 1.518 7.896 2.456.488 1.272-1.365 3.384-2.736 3.119-.275-.053-2.75-.501-5.5-.995zM85.116 8.25c.007-.962 1.581-2.767 3.5-4.01 1.918-1.242 3.487-2.704 3.487-3.25 0-.544.675-.99 1.5-.99 3.111 0 1.673 4.81-2.232 7.464-4.377 2.974-6.273 3.212-6.255.786z" fill="#3e3e3e"/></svg>