<?xml version="1.0" encoding="UTF-8" standalone="no"?>
<svg
   xmlns:dc="http://purl.org/dc/elements/1.1/"
   xmlns:cc="http://creativecommons.org/ns#"
   xmlns:rdf="http://www.w3.org/1999/02/22-rdf-syntax-ns#"
   xmlns:svg="http://www.w3.org/2000/svg"
   xmlns="http://www.w3.org/2000/svg"
   viewBox="0 0 120.10313 96.955788"
   height="96.955788"
   width="120.10313"
   id="svg2"
   version="1.1">
  <metadata
     id="metadata8">
    <rdf:RDF>
      <cc:Work
         rdf:about="">
        <dc:format>image/svg+xml</dc:format>
        <dc:type
           rdf:resource="http://purl.org/dc/dcmitype/StillImage" />
        <dc:title></dc:title>
      </cc:Work>
    </rdf:RDF>
  </metadata>
  <defs
     id="defs6" />
  <path
     id="path12"
     d="M 7.8136894,94.40164 C 5.7294898,93.037261 3.5197598,90.813736 2.9031698,89.460475 2.2865898,88.107214 1.4043398,87 0.94261985,87 c -1.75953,0 -0.87353,-10.895818 1.15677995,-14.22583 1.66537,-2.731459 1.99688,-5.045248 2,-13.95907 0.002,-5.876696 0.44252,-11.838989 0.97881,-13.249541 1.30699,-3.437648 6.6672492,-6.557228 11.2749292,-6.561821 l 3.75,-0.0037 0.0153,-5.75 c 0.0196,-7.342998 0.98103,-9.028327 4.2904,-7.520475 1.80543,0.822607 2.74395,0.820806 3.57162,-0.0069 1.88193,-1.881933 2.99306,0.387811 3.31776,6.777331 l 0.3049,6 13.4198,0.280208 c 7.62081,0.159123 13.83333,-0.133329 14.37678,-0.676784 1.47545,-1.475453 -0.0628,-5.894449 -2.2989,-6.604162 -2.24705,-0.713186 -2.68626,-3.297795 -0.69055,-4.063623 1.57273,-0.603511 11.99696,4.020912 13.70614,6.080348 0.96627,1.164277 0.90591,1.577796 -0.29768,2.03966 -0.83032,0.318622 -2.3435,0.436447 -3.36263,0.261833 -1.1215,-0.192112 -1.85295,0.274684 -1.85295,1.182564 0,1.088448 1.35365,1.585684 4.93373,1.812295 8.46828,0.536025 8.84923,0.233411 10.98356,-8.725012 1.8376,-7.712943 3.99806,-10.774437 5.26799,-7.46505 0.33526,0.873684 0.0932,3.825428 -0.53786,6.559432 -0.63108,2.734003 -1.14742,5.322283 -1.14742,5.751732 0,0.429449 3.4875,1.025522 7.75,1.324606 16.842551,1.181778 28.250001,13.072716 28.250001,29.447333 0,3.947146 -0.39188,7.418823 -0.87084,7.714838 -0.47896,0.296014 -1.12931,1.830555 -1.44521,3.410091 -0.96687,4.834328 -10.28727,13.594836 -17.18395,16.15167 -11.503361,4.264689 -25.186221,0.875677 -32.913721,-8.15217 l -3.19612,-3.733943 -14.92944,-0.149929 c -11.67237,-0.11722 -15.07048,0.145032 -15.57595,1.202089 -0.35559,0.74361 -1.50398,3.141392 -2.55199,5.328405 -4.28716,8.946555 -15.509,12.236428 -23.6222296,6.925253 z M 23.353139,90.846504 c 3.02108,-1.582825 5.08333,-5.82462 5.08333,-10.455779 0,-3.698462 -0.56893,-5.03859 -3.36283,-7.921161 C 22.152239,69.455443 21.078289,69 16.892289,69 c -4.04932,0 -5.38878,0.522601 -8.3907696,3.273723 -3.0710996,2.814453 -3.5820096,3.919351 -3.6418296,7.875835 -0.15049,9.954823 9.3838992,15.469684 18.4934492,10.696946 z m -9.58334,-7.513171 c -1.47522,-1.475228 -0.6443,-6.205655 1.19246,-6.78862 4.02545,-1.277629 7.01234,1.958426 5.10211,5.527729 -0.99254,1.854579 -4.91513,2.640329 -6.29457,1.260891 z m 87.946031,4.352076 c 5.74442,-2.923672 8.37135,-5.576398 11.47506,-11.587725 3.51935,-6.816324 3.67978,-13.5991 0.48159,-20.359531 -10.21831,-21.599733 -39.170151,-20.457451 -47.525841,1.875111 -2.46283,6.58252 -2.50481,10.47481 -0.17487,16.2155 3.30922,8.153498 9.04595,13.309001 18.13137,16.294356 4.12634,1.355865 12.412415,0.20902 17.612691,-2.437711 z M 83.499849,81.092614 c -8.40813,-3.818457 -12.81167,-12.212981 -10.36381,-19.756699 3.58806,-11.057589 13.59247,-16.026243 23.735575,-11.788187 5.337816,2.230282 7.942626,5.066399 9.806146,10.676923 1.399,4.211996 1.45427,5.600531 0.37618,9.451083 -1.60678,5.738831 -6.34605,10.785467 -11.462491,12.205884 -5.42595,1.506342 -7.30769,1.383554 -12.0916,-0.789004 z m 13.682845,-4.798677 c 5.399326,-3.18946 7.478436,-11.38043 4.399836,-17.333786 C 99.967444,55.836915 93.606669,52 90.044099,52 c -3.6071,0 -9.07761,3.176805 -11.05528,6.419965 -1.04935,1.720805 -1.87986,4.936992 -1.88194,7.287928 -0.003,3.516094 0.62842,4.872437 3.84142,8.25 C 84.388069,77.573844 85.294309,78 89.544009,78 c 2.68248,0 6.00784,-0.742705 7.638685,-1.706063 z M 86.487179,67.558413 c -1.16109,-3.02574 0.0818,-5.053499 3.28867,-5.365397 2.4811,-0.241309 3.29927,0.14334 3.82443,1.797988 0.37081,1.168307 0.13187,2.751084 -0.53697,3.556984 -1.55352,1.871878 -5.8592,1.878704 -6.57613,0.01042 z M 60.661699,66.25 c 0.0144,-10.293735 1.71484,-15.472487 6.50328,-19.805963 1.09198,-0.988234 1.56514,-2.05492 1.05146,-2.370413 C 67.702759,43.758131 54.792929,43.5 39.527929,43.5 c -28.35226,0 -28.16967,-0.0217 -28.84146,3.427912 -0.0458,0.235352 5.09167,0.317702 11.41667,0.183 11.97652,-0.255061 15,0.226496 15,2.389088 0,2.13414 -2.80541,2.580712 -15.27239,2.431102 C 10.271529,51.792386 7.0655594,52.512144 8.5492894,54.912868 8.9811194,55.611593 14.201949,56 23.162149,56 c 11.64561,0 13.94099,0.243837 13.94099,1.480948 0,2.045164 -2.64951,2.490557 -16.5,2.773721 L 8.6031394,60.5 V 63 c 0,1.714223 0.47146,2.38779 1.4999996,2.142997 8.84665,-2.105519 16.25982,0.31714 20.72726,6.773768 l 2.77274,4.007332 13.52246,0.03795 13.52247,0.03795 z m -33.85283,-35.5 c -0.23835,-1.2375 -0.43337,-0.225 -0.43337,2.25 0,2.475 0.19502,3.4875 0.43337,2.25 0.23835,-1.2375 0.23835,-3.2625 0,-4.5 z m -2.70573,-11.215204 c 0,-1.904584 5.82369,-8.534796 7.4966,-8.534796 2.65155,0 2.1704,2.695668 -1.12248,6.288825 -3.49858,3.817609 -6.37412,4.830829 -6.37412,2.245971 z m 35.5,-7.657273 c -8.51021,-1.529784 -9.5,-1.872522 -9.5,-3.2895858 0,-2.1306387 1.90727,-2.3808145 9.84007,-1.2907155 4.75512,0.6534335 7.53575,1.518586 7.89572,2.4566387 0.48802,1.2717566 -1.36448,3.3837286 -2.73579,3.1189846 -0.275,-0.05309 -2.75,-0.500986 -5.5,-0.995322 z m 25.51238,-3.6275226 c 0.007,-0.9625 1.5818,-2.7666369 3.5,-4.0091932 1.91819,-1.2425563 3.48762,-2.7050563 3.48762,-3.25000018 C 92.103139,0.445863 92.778139,0 93.603139,0 c 3.111085,0 1.67241,4.8107438 -2.23214,7.4639494 -4.37713,2.9743386 -6.27265,3.2125256 -6.25548,0.786051 z"
     style="fill:#3e3e3e" />
</svg>
