<svg xmlns="http://www.w3.org/2000/svg" height="109.916" width="120"><path d="M9.212 107.394c-5.166-5.158-4.837-11.958.813-16.794 2.788-2.387 4.21-4.713 5.416-8.86 1.869-6.428 6.334-13.642 10.738-17.348 3.823-3.217 3.19-5.765-1.321-5.317-3.042.303-4.098 1.32-5.254 5.064-.466 1.507-1.868 1.75-10.073 1.75H0V47.122l6.25-.606c8.862-.86 13.17.257 13.552 3.513.294 2.492.572 2.587 9.404 3.214 17.374 1.234 18.345 1.102 21.402-2.907 5.326-6.981 12.966-7.736 18.495-1.827 2.154 2.302 2.896 2.496 7.316 1.914 9.51-1.252 19.901-10.083 23.731-20.167 2.544-6.7 2.348-8.305-1.4-11.434-2.855-2.384-3.25-3.309-3.25-7.613 0-3.718.603-5.66 2.5-8.054C100.262.3 101.024 0 106 0c4.887 0 5.758.326 7.81 2.925 1.27 1.609 2.529 4.396 2.798 6.195.619 4.148-2.208 9.84-5.714 11.504-2.034.965-3.104 2.831-4.874 8.501-2.83 9.069-9.156 17.342-16.355 21.39-1.984 1.115-1.983 1.134.134 2.267 1.26.674 3.784.878 6.167.497C99.335 52.74 100 52.25 100 50.31c0-3.378 1.844-3.96 11.42-3.598l8.58.323v18.926l-9.738-.286c-8.831-.26-9.773-.473-10.108-2.287-.767-4.156-1.908-4.5-14.915-4.5H72.724l-4.34 4c-5.852 5.394-11.364 5.1-16.791-.897-5.746-6.35-23.167 3.343-29.166 16.226-3.249 6.978-3.085 9.155.957 12.703 5.376 4.721 5.42 11.64.107 16.565-3.54 3.28-10.95 3.232-14.28-.092zm10.323-4.12c3.036-1.989 3.215-5.635.414-8.436-2.07-2.07-4.877-1.962-7.699.296-2.07 1.657-1.49 6.344 1 8.08 2.873 2.005 3.31 2.01 6.285.06zm-6.072-43.99c1.03-1.03 1.365-2.374.936-3.75C12.704 50.099 5 50.8 5 56.389c0 4.302 5.257 6.1 8.463 2.895zm50.603.57c2.381-1.274 2.593-6.163.363-8.393-4.936-4.936-12.46 2.421-7.774 7.6 1.856 2.05 4.527 2.337 7.41.793zm50.562-1.62c.945-3.764-.733-5.845-4.713-5.845-2.754 0-3.54.49-4.313 2.69-1.265 3.599.638 5.81 5.001 5.81 2.801 0 3.47-.44 4.025-2.654zm-3.98-44.93c3.93-5.998-3.944-10.975-9.142-5.778-2.128 2.128-1.875 4.085.884 6.844 2.827 2.828 5.972 2.422 8.257-1.065z" fill="#424242"/></svg>