<?xml version="1.0" encoding="UTF-8" standalone="no"?>
<svg
   xmlns:dc="http://purl.org/dc/elements/1.1/"
   xmlns:cc="http://creativecommons.org/ns#"
   xmlns:rdf="http://www.w3.org/1999/02/22-rdf-syntax-ns#"
   xmlns:svg="http://www.w3.org/2000/svg"
   xmlns="http://www.w3.org/2000/svg"
   viewBox="0 0 120 109.91631"
   height="109.91631"
   width="120"
   id="svg2"
   version="1.1">
  <metadata
     id="metadata8">
    <rdf:RDF>
      <cc:Work
         rdf:about="">
        <dc:format>image/svg+xml</dc:format>
        <dc:type
           rdf:resource="http://purl.org/dc/dcmitype/StillImage" />
        <dc:title></dc:title>
      </cc:Work>
    </rdf:RDF>
  </metadata>
  <defs
     id="defs6" />
  <path
     id="path12"
     d="m 9.21166,107.39358 c -5.16586,-5.15785 -4.83664,-11.957466 0.8131,-16.793435 2.78872,-2.387041 4.21075,-4.713097 5.41606,-8.859236 1.86895,-6.428957 6.33434,-13.643146 10.73866,-17.349131 3.82234,-3.216292 3.18871,-5.764879 -1.32176,-5.316307 -3.04159,0.302491 -4.09727,1.319928 -5.25418,5.063871 -0.46551,1.50644 -1.86732,1.75 -10.0721501,1.75 H 0 v -9.383503 -9.383503 l 6.25,-0.606269 c 8.86172,-0.859615 13.16907,0.256865 13.55233,3.512815 0.2934,2.492482 0.57137,2.5875 9.40363,3.214432 17.37384,1.23323 18.34499,1.10132 21.40233,-2.907063 5.32523,-6.981736 12.96523,-7.736496 18.49466,-1.827099 2.15393,2.30194 2.89596,2.496081 7.31599,1.914125 C 85.92813,49.171268 96.32049,40.33962 100.15007,30.25605 102.6945,23.556373 102.49789,21.950652 98.75,18.821774 95.89473,16.438086 95.5,15.51348 95.5,11.208979 95.5,7.4906859 96.10275,5.5488085 98,3.1547019 100.26185,0.30051778 101.02393,0 106,0 c 4.88661,0 5.75759,0.32619893 7.80966,2.924866 1.27031,1.6086763 2.52934,4.3962781 2.79785,6.1946707 0.61943,4.1488083 -2.20732,9.8403173 -5.71375,11.5043193 -2.03419,0.965341 -3.10383,2.831261 -4.8733,8.501147 -2.83013,9.068554 -9.15664,17.342473 -16.35501,21.389339 -1.98487,1.115879 -1.98379,1.13426 0.13311,2.267193 1.26081,0.674765 3.78491,0.878235 6.16782,0.497192 3.368507,-0.538646 4.033617,-1.027963 4.033617,-2.967503 0,-3.378378 1.843843,-3.959394 11.419443,-3.598408 L 120,47.036289 v 9.462739 9.462738 l -9.73842,-0.286212 c -8.83074,-0.259536 -9.77282,-0.472622 -10.1076,-2.286212 -0.767173,-4.155938 -1.90752,-4.5 -14.91459,-4.5 H 72.72366 l -4.33949,4 c -5.85194,5.394129 -11.36423,5.099459 -16.79152,-0.897621 -5.74606,-6.349329 -23.16686,3.343017 -29.16553,16.226722 -3.24872,6.977452 -3.08477,9.15458 0.95659,12.702936 5.3765,4.720632 5.42119,11.639131 0.10698,16.564171 -3.53899,3.27983 -10.9498,3.2321 -14.2790301,-0.092 z m 10.32352,-4.11925 c 3.03572,-1.98908 3.21451,-5.635295 0.41367,-8.43614 -2.06991,-2.069907 -4.87652,-1.962006 -7.69885,0.295986 -2.07041,1.656417 -1.49037,6.343544 1,8.080744 2.87344,2.00441 3.31044,2.00854 6.28518,0.0594 z M 13.46252,59.28397 c 1.02992,-1.029925 1.36566,-2.374118 0.93664,-3.75 C 12.70444,50.098921 5,50.800064 5,56.389342 c 0,4.30215 5.25687,6.100276 8.46252,2.894628 z m 50.60322,0.570188 c 2.38142,-1.274496 2.59276,-6.163459 0.36283,-8.393387 -4.93537,-4.935376 -12.46016,2.421219 -7.77358,7.59983 1.85611,2.050984 4.52686,2.336972 7.41075,0.793557 z m 50.56246,-1.619593 c 0.9448,-3.764384 -0.73301,-5.845223 -4.7131,-5.845223 -2.75377,0 -3.53924,0.489931 -4.31305,2.690253 -1.26543,3.598222 0.63837,5.809747 5.00134,5.809747 2.80063,0 3.46918,-0.44098 4.02481,-2.654777 z m -3.98087,-44.929733 c 3.93044,-5.9986073 -3.94381,-10.9761514 -9.14141,-5.7785531 -2.127753,2.1277464 -1.874993,4.0849031 0.88384,6.8437281 2.82769,2.827697 5.97268,2.422014 8.25757,-1.065175 z"
     style="fill:#424242" />
</svg>
